<svg xmlns="http://www.w3.org/2000/svg" xmlns:xlink="http://www.w3.org/1999/xlink" viewBox="0 0 164.26 122.51"><defs><style>.cls-1{fill:url(#linear-gradient);}.cls-2{fill:url(#linear-gradient-2);}.cls-3{fill:url(#linear-gradient-3);}.cls-4{fill:url(#linear-gradient-4);}.cls-5{fill:url(#linear-gradient-5);}.cls-6{fill:url(#linear-gradient-6);}.cls-7{fill:url(#linear-gradient-7);}.cls-8{fill:url(#linear-gradient-8);}.cls-9{fill:#fff;}.cls-10{fill:#564c4d;}.cls-11{fill:url(#linear-gradient-9);}.cls-12{fill:url(#linear-gradient-10);}.cls-13{fill:url(#linear-gradient-11);}.cls-14{fill:url(#linear-gradient-12);}.cls-15{fill:url(#linear-gradient-13);}.cls-16{fill:url(#linear-gradient-14);}.cls-17{fill:url(#linear-gradient-15);}.cls-18{fill:url(#linear-gradient-16);}.cls-19{fill:url(#linear-gradient-17);}.cls-20{fill:url(#linear-gradient-18);}.cls-21{fill:url(#linear-gradient-19);}.cls-22{fill:url(#linear-gradient-20);}.cls-23{fill:url(#linear-gradient-21);}.cls-24{fill:url(#linear-gradient-22);}.cls-25{fill:url(#linear-gradient-23);}.cls-26{fill:url(#linear-gradient-24);}.cls-27{fill:url(#linear-gradient-25);}.cls-28{fill:url(#linear-gradient-26);}.cls-29{fill:url(#linear-gradient-27);}.cls-30{fill:url(#linear-gradient-28);}.cls-31{opacity:0.7;}.cls-32{fill:url(#linear-gradient-29);}.cls-33{fill:url(#linear-gradient-30);}.cls-34{fill:url(#linear-gradient-31);}.cls-35{fill:url(#linear-gradient-32);}.cls-36{fill:url(#linear-gradient-33);}.cls-37{fill:url(#linear-gradient-34);}.cls-38{fill:url(#linear-gradient-35);}.cls-39{fill:url(#linear-gradient-36);}.cls-40{fill:url(#linear-gradient-37);}.cls-41{fill:url(#linear-gradient-38);}.cls-42{fill:url(#linear-gradient-39);}.cls-43{fill:url(#linear-gradient-40);}.cls-44{fill:url(#linear-gradient-41);}.cls-45{fill:url(#linear-gradient-42);}.cls-46{fill:url(#linear-gradient-43);}.cls-47{fill:url(#linear-gradient-44);}.cls-48{fill:url(#linear-gradient-45);}.cls-49{fill:url(#linear-gradient-46);}.cls-50{fill:url(#linear-gradient-47);}.cls-51{fill:url(#linear-gradient-48);}.cls-52{fill:url(#linear-gradient-49);}.cls-53{fill:url(#linear-gradient-50);}.cls-54{fill:url(#linear-gradient-51);}.cls-55{fill:url(#linear-gradient-52);}.cls-56{fill:url(#linear-gradient-53);}.cls-57{fill:url(#linear-gradient-54);}.cls-58{fill:url(#linear-gradient-55);}.cls-59{fill:url(#linear-gradient-56);}.cls-60{fill:url(#linear-gradient-57);}.cls-61{fill:url(#linear-gradient-58);}.cls-62{fill:url(#linear-gradient-59);}.cls-63{fill:url(#linear-gradient-60);}.cls-64{fill:url(#linear-gradient-61);}.cls-65{fill:url(#linear-gradient-62);}.cls-66{fill:url(#linear-gradient-63);}.cls-67{fill:url(#linear-gradient-64);}.cls-68{fill:url(#linear-gradient-65);}.cls-69{fill:url(#linear-gradient-66);}.cls-70{fill:url(#linear-gradient-67);}.cls-71{fill:url(#linear-gradient-68);}.cls-72{fill:url(#linear-gradient-69);}.cls-73{fill:url(#linear-gradient-70);}.cls-74{fill:url(#linear-gradient-71);}.cls-75{fill:url(#linear-gradient-72);}.cls-76{fill:url(#linear-gradient-73);}.cls-77{fill:url(#linear-gradient-74);}.cls-78{fill:url(#linear-gradient-75);}.cls-79{fill:url(#linear-gradient-76);}.cls-80{fill:url(#linear-gradient-77);}.cls-81{fill:url(#linear-gradient-78);}.cls-82{fill:url(#linear-gradient-79);}.cls-83{fill:url(#linear-gradient-80);}.cls-84{fill:url(#linear-gradient-81);}.cls-85{fill:url(#linear-gradient-82);}.cls-86{fill:url(#linear-gradient-83);}.cls-87{fill:url(#linear-gradient-84);}.cls-88{fill:url(#linear-gradient-85);}.cls-89{fill:url(#linear-gradient-86);}.cls-90{fill:url(#linear-gradient-87);}.cls-91{fill:url(#linear-gradient-88);}.cls-92{fill:url(#linear-gradient-89);}.cls-93{fill:url(#linear-gradient-90);}.cls-94{fill:url(#linear-gradient-91);}</style><linearGradient id="linear-gradient" x1="-7.54" y1="37.3" x2="64.66" y2="62.5" gradientUnits="userSpaceOnUse"><stop offset="0" stop-color="#00bee7"/><stop offset="0.17" stop-color="#20afdc"/><stop offset="0.33" stop-color="#0087b4"/><stop offset="0.5" stop-color="#0073a1"/><stop offset="0.67" stop-color="#00527d"/><stop offset="0.83" stop-color="#144069"/><stop offset="1" stop-color="#192951"/></linearGradient><linearGradient id="linear-gradient-2" x1="-5.51" y1="31.49" x2="66.69" y2="56.69" xlink:href="#linear-gradient"/><linearGradient id="linear-gradient-3" x1="-8.39" y1="39.74" x2="63.81" y2="64.94" xlink:href="#linear-gradient"/><linearGradient id="linear-gradient-4" x1="-11.17" y1="47.7" x2="61.03" y2="72.9" xlink:href="#linear-gradient"/><linearGradient id="linear-gradient-5" x1="275.15" y1="37.3" x2="347.35" y2="62.5" gradientTransform="matrix(-1, 0, 0, 1, 446.27, 0)" xlink:href="#linear-gradient"/><linearGradient id="linear-gradient-6" x1="277.18" y1="31.49" x2="349.38" y2="56.69" gradientTransform="matrix(-1, 0, 0, 1, 446.27, 0)" xlink:href="#linear-gradient"/><linearGradient id="linear-gradient-7" x1="274.3" y1="39.74" x2="346.5" y2="64.94" gradientTransform="matrix(-1, 0, 0, 1, 446.27, 0)" xlink:href="#linear-gradient"/><linearGradient id="linear-gradient-8" x1="271.52" y1="47.7" x2="343.72" y2="72.9" gradientTransform="matrix(-1, 0, 0, 1, 446.27, 0)" xlink:href="#linear-gradient"/><linearGradient id="linear-gradient-9" x1="108.05" y1="59.46" x2="26.41" y2="24.65" gradientUnits="userSpaceOnUse"><stop offset="0.01" stop-color="#891a1c"/><stop offset="0.23" stop-color="#b41d22"/><stop offset="0.51" stop-color="#c61d23"/><stop offset="1" stop-color="#ef4e23"/></linearGradient><linearGradient id="linear-gradient-10" x1="113.38" y1="46.96" x2="31.74" y2="12.15" xlink:href="#linear-gradient-9"/><linearGradient id="linear-gradient-11" x1="108.88" y1="57.51" x2="27.24" y2="22.7" xlink:href="#linear-gradient-9"/><linearGradient id="linear-gradient-12" x1="121.12" y1="28.8" x2="39.48" y2="-6.01" xlink:href="#linear-gradient-9"/><linearGradient id="linear-gradient-13" x1="122.13" y1="26.45" x2="40.49" y2="-8.36" xlink:href="#linear-gradient-9"/><linearGradient id="linear-gradient-14" x1="117.26" y1="37.86" x2="35.62" y2="3.05" xlink:href="#linear-gradient-9"/><linearGradient id="linear-gradient-15" x1="118.59" y1="34.75" x2="36.95" y2="-0.06" xlink:href="#linear-gradient-9"/><linearGradient id="linear-gradient-16" x1="123.34" y1="23.61" x2="41.7" y2="-11.2" xlink:href="#linear-gradient-9"/><linearGradient id="linear-gradient-17" x1="121.07" y1="28.92" x2="39.43" y2="-5.89" xlink:href="#linear-gradient-9"/><linearGradient id="linear-gradient-18" x1="119.16" y1="33.4" x2="37.52" y2="-1.41" xlink:href="#linear-gradient-9"/><linearGradient id="linear-gradient-19" x1="122.84" y1="24.77" x2="41.2" y2="-10.04" xlink:href="#linear-gradient-9"/><linearGradient id="linear-gradient-20" x1="111.43" y1="51.52" x2="29.8" y2="16.71" xlink:href="#linear-gradient-9"/><linearGradient id="linear-gradient-21" x1="122.37" y1="25.87" x2="40.74" y2="-8.94" xlink:href="#linear-gradient-9"/><linearGradient id="linear-gradient-22" x1="112.43" y1="49.19" x2="30.79" y2="14.38" xlink:href="#linear-gradient-9"/><linearGradient id="linear-gradient-23" x1="119.89" y1="31.69" x2="38.25" y2="-3.12" xlink:href="#linear-gradient-9"/><linearGradient id="linear-gradient-24" x1="116.91" y1="38.67" x2="35.28" y2="3.86" xlink:href="#linear-gradient-9"/><linearGradient id="linear-gradient-25" x1="100.42" y1="59.94" x2="87.7" y2="54.51" xlink:href="#linear-gradient"/><linearGradient id="linear-gradient-26" x1="65.02" y1="56.91" x2="75.68" y2="56.91" xlink:href="#linear-gradient"/><linearGradient id="linear-gradient-27" x1="70.54" y1="34.74" x2="93.03" y2="34.74" xlink:href="#linear-gradient"/><linearGradient id="linear-gradient-28" x1="76.04" y1="31.12" x2="89.16" y2="34.46" xlink:href="#linear-gradient"/><linearGradient id="linear-gradient-29" x1="76.98" y1="57.48" x2="86.6" y2="57.48" xlink:href="#linear-gradient"/><linearGradient id="linear-gradient-30" x1="76.98" y1="58.82" x2="86.6" y2="58.82" xlink:href="#linear-gradient"/><linearGradient id="linear-gradient-31" x1="76.98" y1="60.22" x2="86.6" y2="60.22" xlink:href="#linear-gradient"/><linearGradient id="linear-gradient-32" x1="73.28" y1="16.48" x2="90.3" y2="16.48" xlink:href="#linear-gradient"/><linearGradient id="linear-gradient-33" x1="25.94" y1="99.86" x2="17.66" y2="98.87" xlink:href="#linear-gradient-9"/><linearGradient id="linear-gradient-34" x1="25.7" y1="101.93" x2="17.41" y2="100.94" xlink:href="#linear-gradient-9"/><linearGradient id="linear-gradient-35" x1="25.7" y1="101.93" x2="17.41" y2="100.94" xlink:href="#linear-gradient-9"/><linearGradient id="linear-gradient-36" x1="26.19" y1="97.79" x2="17.9" y2="96.8" xlink:href="#linear-gradient-9"/><linearGradient id="linear-gradient-37" x1="40.45" y1="97.07" x2="31.58" y2="95.79" xlink:href="#linear-gradient-9"/><linearGradient id="linear-gradient-38" x1="40.16" y1="99.05" x2="31.29" y2="97.77" xlink:href="#linear-gradient-9"/><linearGradient id="linear-gradient-39" x1="40.16" y1="99.05" x2="31.29" y2="97.77" xlink:href="#linear-gradient-9"/><linearGradient id="linear-gradient-40" x1="40.74" y1="95.09" x2="31.87" y2="93.8" xlink:href="#linear-gradient-9"/><linearGradient id="linear-gradient-41" x1="60.12" y1="93.35" x2="45.58" y2="91.6" xlink:href="#linear-gradient-9"/><linearGradient id="linear-gradient-42" x1="59.87" y1="95.46" x2="45.33" y2="93.7" xlink:href="#linear-gradient-9"/><linearGradient id="linear-gradient-43" x1="59.87" y1="95.41" x2="45.34" y2="93.66" xlink:href="#linear-gradient-9"/><linearGradient id="linear-gradient-44" x1="60.37" y1="91.28" x2="45.83" y2="89.53" xlink:href="#linear-gradient-9"/><linearGradient id="linear-gradient-45" x1="77.72" y1="89.43" x2="61.5" y2="86.45" xlink:href="#linear-gradient-9"/><linearGradient id="linear-gradient-46" x1="77.39" y1="91.28" x2="61.16" y2="88.3" xlink:href="#linear-gradient-9"/><linearGradient id="linear-gradient-47" x1="77.39" y1="91.28" x2="61.16" y2="88.3" xlink:href="#linear-gradient-9"/><linearGradient id="linear-gradient-48" x1="78.06" y1="87.58" x2="61.84" y2="84.6" xlink:href="#linear-gradient-9"/><linearGradient id="linear-gradient-49" x1="97.69" y1="84.58" x2="83.38" y2="82.42" xlink:href="#linear-gradient-9"/><linearGradient id="linear-gradient-50" x1="97.39" y1="86.52" x2="83.09" y2="84.36" xlink:href="#linear-gradient-9"/><linearGradient id="linear-gradient-51" x1="97.39" y1="86.52" x2="83.09" y2="84.36" xlink:href="#linear-gradient-9"/><linearGradient id="linear-gradient-52" x1="97.99" y1="82.59" x2="83.68" y2="80.44" xlink:href="#linear-gradient-9"/><linearGradient id="linear-gradient-53" x1="97.13" y1="-8.55" x2="113.09" y2="-2.98" gradientTransform="matrix(1, -0.07, 0, 1, 0, 91.76)" xlink:href="#linear-gradient"/><linearGradient id="linear-gradient-54" x1="111.39" y1="-9.82" x2="128.99" y2="-5.32" gradientTransform="matrix(1, -0.07, 0, 1, 0, 91.76)" xlink:href="#linear-gradient"/><linearGradient id="linear-gradient-55" x1="122.04" y1="-15.8" x2="140.85" y2="-7.38" gradientTransform="matrix(1, -0.07, 0, 1, 0, 91.76)" xlink:href="#linear-gradient"/><linearGradient id="linear-gradient-56" x1="140.48" y1="-14.69" x2="158.27" y2="-11.94" gradientTransform="matrix(1, -0.07, 0, 1, 0, 91.76)" xlink:href="#linear-gradient"/><linearGradient id="linear-gradient-57" x1="81.79" y1="79.68" x2="81.79" y2="63.83" gradientUnits="userSpaceOnUse"><stop offset="0" stop-color="#ffc10e"/><stop offset="0.17" stop-color="#fcb813"/><stop offset="0.34" stop-color="#fbae17"/><stop offset="0.5" stop-color="#f89c1c"/><stop offset="0.67" stop-color="#f58a1f"/><stop offset="0.83" stop-color="#f26f21"/><stop offset="1" stop-color="#ef4e23"/></linearGradient><linearGradient id="linear-gradient-58" x1="-28.91" y1="111.2" x2="145.83" y2="133.88" xlink:href="#linear-gradient"/><linearGradient id="linear-gradient-59" x1="-28.76" y1="110.07" x2="145.98" y2="132.75" xlink:href="#linear-gradient"/><linearGradient id="linear-gradient-60" x1="-28.55" y1="108.44" x2="146.19" y2="131.11" xlink:href="#linear-gradient"/><linearGradient id="linear-gradient-61" x1="-28.45" y1="107.69" x2="146.29" y2="130.36" xlink:href="#linear-gradient"/><linearGradient id="linear-gradient-62" x1="-28.26" y1="106.16" x2="146.48" y2="128.84" xlink:href="#linear-gradient"/><linearGradient id="linear-gradient-63" x1="-28.14" y1="105.23" x2="146.6" y2="127.9" xlink:href="#linear-gradient"/><linearGradient id="linear-gradient-64" x1="-28.05" y1="104.55" x2="146.69" y2="127.23" xlink:href="#linear-gradient"/><linearGradient id="linear-gradient-65" x1="-27.9" y1="103.45" x2="146.84" y2="126.12" xlink:href="#linear-gradient"/><linearGradient id="linear-gradient-66" x1="-27.77" y1="102.39" x2="146.97" y2="125.06" xlink:href="#linear-gradient"/><linearGradient id="linear-gradient-67" x1="-28.04" y1="104.52" x2="146.7" y2="127.19" xlink:href="#linear-gradient"/><linearGradient id="linear-gradient-68" x1="-27.46" y1="100.02" x2="147.28" y2="122.7" xlink:href="#linear-gradient"/><linearGradient id="linear-gradient-69" x1="-27.33" y1="99.02" x2="147.41" y2="121.69" xlink:href="#linear-gradient"/><linearGradient id="linear-gradient-70" x1="-27.2" y1="98.04" x2="147.54" y2="120.72" xlink:href="#linear-gradient"/><linearGradient id="linear-gradient-71" x1="-27" y1="96.49" x2="147.74" y2="119.16" xlink:href="#linear-gradient"/><linearGradient id="linear-gradient-72" x1="-26.78" y1="94.75" x2="147.96" y2="117.43" xlink:href="#linear-gradient"/><linearGradient id="linear-gradient-73" x1="-26.64" y1="93.68" x2="148.1" y2="116.36" xlink:href="#linear-gradient"/><linearGradient id="linear-gradient-74" x1="-26.43" y1="92.05" x2="148.31" y2="114.73" xlink:href="#linear-gradient"/><linearGradient id="linear-gradient-75" x1="-26.3" y1="91.08" x2="148.44" y2="113.75" xlink:href="#linear-gradient"/><linearGradient id="linear-gradient-76" x1="-26.14" y1="89.83" x2="148.6" y2="112.5" xlink:href="#linear-gradient"/><linearGradient id="linear-gradient-77" x1="-25.97" y1="88.52" x2="148.77" y2="111.19" xlink:href="#linear-gradient"/><linearGradient id="linear-gradient-78" x1="-25.79" y1="87.15" x2="148.95" y2="109.83" xlink:href="#linear-gradient"/><linearGradient id="linear-gradient-79" x1="-25.66" y1="86.17" x2="149.08" y2="108.84" xlink:href="#linear-gradient"/><linearGradient id="linear-gradient-80" x1="-25.48" y1="84.75" x2="149.26" y2="107.42" xlink:href="#linear-gradient"/><linearGradient id="linear-gradient-81" x1="-25.31" y1="83.45" x2="149.43" y2="106.13" xlink:href="#linear-gradient"/><linearGradient id="linear-gradient-82" x1="-25.12" y1="81.95" x2="149.62" y2="104.63" xlink:href="#linear-gradient"/><linearGradient id="linear-gradient-83" x1="-25.04" y1="81.34" x2="149.7" y2="104.01" xlink:href="#linear-gradient"/><linearGradient id="linear-gradient-84" x1="-24.89" y1="80.19" x2="149.85" y2="102.86" xlink:href="#linear-gradient"/><linearGradient id="linear-gradient-85" x1="-24.73" y1="79.01" x2="150.01" y2="101.69" xlink:href="#linear-gradient"/><linearGradient id="linear-gradient-86" x1="-24.57" y1="77.71" x2="150.17" y2="100.39" xlink:href="#linear-gradient"/><linearGradient id="linear-gradient-87" x1="-24.39" y1="76.33" x2="150.36" y2="99" xlink:href="#linear-gradient"/><linearGradient id="linear-gradient-88" x1="-24.32" y1="75.81" x2="150.42" y2="98.49" xlink:href="#linear-gradient"/><linearGradient id="linear-gradient-89" x1="-24.22" y1="75.06" x2="150.52" y2="97.73" xlink:href="#linear-gradient"/><linearGradient id="linear-gradient-90" x1="-24.07" y1="73.86" x2="150.68" y2="96.53" xlink:href="#linear-gradient"/><linearGradient id="linear-gradient-91" x1="-23.83" y1="72.06" x2="150.91" y2="94.74" xlink:href="#linear-gradient"/></defs><title>tekno-logo</title><g id="katman_2" data-name="katman 2"><g id="katman_1-2" data-name="katman 1"><path class="cls-1" d="M45.77,73A27.07,27.07,0,0,1,28,62.11l36.32,5.3c0-.15-.09-.29-.14-.45l-.12-.39c-.18-.59-.39-1.26-.57-2L50.27,62.65a23.2,23.2,0,0,0,6.21-2.14s-7.95,1.86-22.1-.2A27,27,0,0,1,16.64,49.42L62.2,56.07c0-.11,0-.21,0-.31,0-.3,0-.57,0-.8l0-.86v0c0-.18,0-.37,0-.55v-.13L38.65,49.93A23.59,23.59,0,0,0,45,47.76s-7.95,1.87-22.11-.2A27,27,0,0,1,5.13,36.68l59.76,8.71a12.58,12.58,0,0,1,1.23-1.54A11.59,11.59,0,0,1,67,43L0,33.23,1.05,35A31.89,31.89,0,0,0,11.51,46h0l1.05,1.82A32,32,0,0,0,22.92,58.67h0l1,1.82A30.83,30.83,0,0,0,45.77,75.7c14.27,2.08,22.1-2.51,22.1-2.51S59.92,75.06,45.77,73Z"/><path class="cls-2" d="M7.43,38l23.91,3.37S15.76,45,7.43,38Z"/><path class="cls-3" d="M19,50.8l18.59,2.63S25.45,56.31,19,50.8Z"/><path class="cls-4" d="M30.44,63.55l16.35,2.31S36.13,68.39,30.44,63.55Z"/><path class="cls-5" d="M117.81,73a27.07,27.07,0,0,0,17.74-10.89l-36.33,5.3.15-.45.12-.39c.18-.59.39-1.26.57-2l13.25-1.94a23.2,23.2,0,0,1-6.21-2.14s8,1.86,22.1-.2a27,27,0,0,0,17.74-10.89l-45.56,6.65c0-.11,0-.21,0-.31,0-.3,0-.57,0-.8l0-.86v0c0-.18,0-.37,0-.55v-.13l23.62-3.45a23.59,23.59,0,0,1-6.33-2.17s8,1.87,22.1-.2a27,27,0,0,0,17.74-10.88L98.69,45.39a13.61,13.61,0,0,0-1.23-1.54,10.07,10.07,0,0,0-.88-.85l67-9.77L162.53,35A31.89,31.89,0,0,1,152.07,46h0L151,47.79a32,32,0,0,1-10.37,10.88h0l-1.05,1.82A30.8,30.8,0,0,1,117.81,75.7c-14.28,2.08-22.11-2.51-22.11-2.51S103.66,75.06,117.81,73Z"/><path class="cls-6" d="M156.14,38l-23.9,3.37S147.82,45,156.14,38Z"/><path class="cls-7" d="M144.6,50.8,126,53.43S138.12,56.31,144.6,50.8Z"/><path class="cls-8" d="M133.13,63.55l-16.34,2.31S127.44,68.39,133.13,63.55Z"/><path class="cls-9" d="M23.56,58.85l1.12.81S26.73,64.14,34,70.07C25.49,64,23.56,58.85,23.56,58.85Z"/><path class="cls-9" d="M12.24,46.22l1.12.81s2.05,4.47,9.27,10.41C14.17,51.34,12.24,46.22,12.24,46.22Z"/><path class="cls-9" d="M1.11,33.93l38.05,5.58L2.23,34.74s2.05,4.47,9.27,10.41C3,39.05,1.11,33.93,1.11,33.93Z"/><path class="cls-10" d="M119.79,27.63h0v0Z"/><path class="cls-9" d="M140,58.85l-1.12.81s-2.05,4.48-9.27,10.41C138.09,64,140,58.85,140,58.85Z"/><path class="cls-9" d="M151.33,46.22l-1.11.81S148.16,51.5,141,57.44C149.4,51.34,151.33,46.22,151.33,46.22Z"/><path class="cls-9" d="M162.47,33.93l-38,5.58,36.93-4.77s-2.06,4.47-9.27,10.41C160.53,39.05,162.47,33.93,162.47,33.93Z"/><path class="cls-11" d="M51.62,34.55c.07-.17.13-.32.18-.46s.08-.26.1-.36.05-.33.05-.33-.06.11-.17.28a6.66,6.66,0,0,1-.47.68,4.84,4.84,0,0,1-.77.81,2.72,2.72,0,0,1-.51.32l-.28.11-.14,0-.14,0h-.31a1.51,1.51,0,0,1-.3,0,1.86,1.86,0,0,1-.56-.15,2.33,2.33,0,0,1-.85-.64A2.52,2.52,0,0,1,47,34.2,1.06,1.06,0,0,1,47,34l0-.09,0,.09a1.88,1.88,0,0,0,0,.24,1.42,1.42,0,0,0,.06.38,1.79,1.79,0,0,0,.18.48,2.48,2.48,0,0,0,.35.49,2.36,2.36,0,0,0,.54.44,2.4,2.4,0,0,0,1.49.26l.2,0,.19-.06A1.94,1.94,0,0,0,50.3,36a2.74,2.74,0,0,0,.6-.44A3.72,3.72,0,0,0,51.62,34.55Z"/><path class="cls-12" d="M63.17,26.2a2.15,2.15,0,0,1,2.94-.43,1.39,1.39,0,0,1,.21.27,1.64,1.64,0,0,0-.38-1.56A2.14,2.14,0,0,0,63,24.9a2.29,2.29,0,0,0-.61,2.68A2.88,2.88,0,0,1,63.17,26.2Z"/><path class="cls-13" d="M47.6,31.62c-.5,1.62,0,3.2,1.09,3.55s2.41-.7,2.91-2.31,0-3.21-1.09-3.55S48.1,30,47.6,31.62Z"/><path class="cls-14" d="M97.39,18.48a4.27,4.27,0,0,0-2-2.17c-1.5-.89-3.08-1-3.53-.26-.34.57.08,1.49,1,2.29a1,1,0,0,1,.07-.81c.45-.75,2-.63,3.53.26A6.34,6.34,0,0,1,97.39,18.48Z"/><path class="cls-15" d="M112.9,23.37c.66.65,1.46.91,1.79.59s.06-1.13-.6-1.79-1.46-.92-1.79-.59S112.24,22.71,112.9,23.37Z"/><path class="cls-16" d="M63.2,19.91a1.76,1.76,0,0,0,.12-.2c.09-.15.19-.32.28-.51l.15-.3c0-.11.09-.21.13-.32a6.35,6.35,0,0,0,.23-.65,1.46,1.46,0,0,0,0-.2,1.4,1.4,0,0,0,.34.13,2.57,2.57,0,0,0,.84,0l0,.27c0,.15,0,.3,0,.46,0,.63.06,1.26.06,1.26s.2-.6.37-1.21c.09-.31.17-.62.23-.86v-.05a6.9,6.9,0,0,0,1.66-.72L69,18.19l-.63-1.51a7.8,7.8,0,0,0,1.05-.89l.08,0,.19.06A2.44,2.44,0,0,0,70,16a1.82,1.82,0,0,0,.4,0,1.76,1.76,0,0,0,.34,0,1.32,1.32,0,0,0,.22-.08l.07,0H71a1,1,0,0,1-.22,0,1.28,1.28,0,0,1-.28-.09l-.31-.16a1.89,1.89,0,0,1-.27-.2l-.08-.08L70,15a2.3,2.3,0,0,0,.44-1.33h.8a6.11,6.11,0,0,0,1.08-.15l.33-.11.13-.05h-.13a1.89,1.89,0,0,1-.35,0,5.15,5.15,0,0,1-1-.15c-.18,0-.36-.1-.52-.16A3.68,3.68,0,0,1,70.3,13l-.17-.07L70,12.83h0a1.53,1.53,0,0,0-.61-.31,5.07,5.07,0,0,0-3.52,1c-1.55,1-2.46,2.28-2.38,3.24h0v.16c0,.05,0,.1,0,.16a1.48,1.48,0,0,1,0,.22,5,5,0,0,1,0,.55c0,.2,0,.42-.06.63s0,.22-.05.33a2.82,2.82,0,0,1-.07.31,5.07,5.07,0,0,1-.14.56c0,.08-.05.15-.07.22a1.38,1.38,0,0,1-.06.16l0,.15.08-.13Zm4.39-3.7c-1.31.84-2.58,1.21-2.83.82s.61-1.39,1.93-2.23,2.58-1.22,2.83-.83S68.91,15.36,67.59,16.21Z"/><path class="cls-17" d="M104,24.54l-.15,0-.25.05a7.56,7.56,0,0,1-1.45.12c-.27,0-.54,0-.79,0a6,6,0,0,1-.7-.09l-.28-.05-.21,0-.19,0,.17.09.19.11.26.13.66.29c.25.1.52.19.79.28s.64.17.94.23a3,3,0,0,0,0,1.34l-.75.18c-.76.16-1.53.3-1.53.3s.76.19,1.53.35c.37.08.74.15,1,.19a8.67,8.67,0,0,0,1.05,1.87l-1.1,1.6,1.71-.85A8.55,8.55,0,0,0,106,31.7h0a2,2,0,0,0,0,.24,2.9,2.9,0,0,0,0,.51,2.84,2.84,0,0,0,.16.9,1.62,1.62,0,0,0,.14.27l.08.08,0-.11c0-.06,0-.15,0-.26a2.39,2.39,0,0,1,.27-.74,2.24,2.24,0,0,1,.23-.34v0l.26.15a3.19,3.19,0,0,0,1.63.37.61.61,0,0,1,0,.14,6.53,6.53,0,0,0,.1.72,6.26,6.26,0,0,0,.36,1.29c.07.16.14.3.19.39l.08.14,0-.16a3.53,3.53,0,0,1,0-.42,5.65,5.65,0,0,1,.09-1.25c0-.22.09-.44.14-.65s.11-.39.16-.55l.12-.33a2.6,2.6,0,0,0,.2-2.16A8,8,0,0,0,108.55,27,8.2,8.2,0,0,0,106,24.82,2.69,2.69,0,0,0,104,24.54Zm4.8,7c-.61.5-1.92-.09-2.91-1.32s-1.29-2.62-.67-3.13,1.92.09,2.91,1.32S109.38,31,108.76,31.51Z"/><path class="cls-18" d="M84.15,7.9a2,2,0,0,0,.22.47,1.15,1.15,0,0,0,.45.45,1.09,1.09,0,0,0,.57.25l.42,0a1.49,1.49,0,0,0,.74-.25,1.47,1.47,0,0,0,.53-.6,1.44,1.44,0,0,0,.16-.79A1.52,1.52,0,0,0,87,6.72c-.09-.11-.18-.22-.28-.32a1.11,1.11,0,0,0-.54-.3,1.14,1.14,0,0,0-.45-.1A1.44,1.44,0,0,0,84.1,7.16,1.55,1.55,0,0,0,84.15,7.9Z"/><path class="cls-19" d="M70.87,7.86h0v0a.22.22,0,0,0,.28.24.66.66,0,0,0,.48-.36.45.45,0,0,0,0-.45.44.44,0,0,0-.4-.2l-.07,0a.31.31,0,0,0-.26.09.29.29,0,0,0-.07.22A.51.51,0,0,0,70.87,7.86Z"/><path class="cls-20" d="M63.38,10.82a1.11,1.11,0,0,0,1-2A1.11,1.11,0,0,0,63.38,10.82Z"/><path class="cls-21" d="M79.78,6.6a.39.39,0,0,0,.73.23.55.55,0,0,0,.09-.33A.41.41,0,0,0,80,6.16h0a.26.26,0,0,0-.22.25A.41.41,0,0,0,79.78,6.6Z"/><path class="cls-22" d="M55.59,28.66A1.31,1.31,0,0,0,56,29a1.05,1.05,0,0,0,.78.06,1,1,0,0,0,.58-1.41A1,1,0,0,0,56,27.15a1,1,0,0,0-.51.58,1.07,1.07,0,0,0,0,.73A.2.2,0,0,0,55.59,28.66Z"/><path class="cls-23" d="M105.87,19.37l.09,0a.54.54,0,0,0,.22-.13.62.62,0,0,0,.19-.14.53.53,0,0,0,.11-.54.51.51,0,0,0-.19-.28.88.88,0,0,0-1-.19.73.73,0,0,0-.42,1A.72.72,0,0,0,105.87,19.37Z"/><path class="cls-24" d="M52.73,23.82a1.48,1.48,0,0,0,.12-.59,1.19,1.19,0,0,0-.38-.78l-.14-.09a1.29,1.29,0,0,0-.56-.28,1.36,1.36,0,0,0-.6,0,1.25,1.25,0,0,0-.67.59,1.17,1.17,0,0,0-.06.9,1,1,0,0,0,.33.5,1.19,1.19,0,0,0,.56.28l.15.05.3,0a1,1,0,0,0,.42-.12A1.11,1.11,0,0,0,52.73,23.82Z"/><path class="cls-25" d="M116.84,29.17a1.13,1.13,0,1,0-1,2,1.13,1.13,0,0,0,1.51-.51,1.08,1.08,0,0,0,.1-.35,1.22,1.22,0,0,0-.06-.54A1,1,0,0,0,116.84,29.17Z"/><path class="cls-26" d="M125.07,32l.12.25a45.47,45.47,0,0,0-15.85-23c.33-.8.63-1.34.52-1.69a10.63,10.63,0,0,0-4-4.12l-.06,0A20.13,20.13,0,0,0,99.48.75h0c-.21,0-.43-.08-.64-.1-1.77-.19-2.5.43-2.64.75a4.69,4.69,0,0,1-.42.8h0A47.73,47.73,0,0,0,89.45.66a45.29,45.29,0,0,0-35.7,9.08c-.33.27-.7.63-1.11,1l-.06,0-.14-.08-.37-.23a2.82,2.82,0,0,0-.44-.26c-2.71-1.35-6,2.08-6.91,3.17C42.6,15.72,41,19,42.9,20.93l.44.52c-.78,1.25-1.5,2.54-2.15,3.85a45.67,45.67,0,0,0-3.65,10.3l3,.48a41.78,41.78,0,0,1,3.36-9.46C44.5,25.31,45.21,24,46,22.83l0,.05c0,.2.08.39.09.58a5.43,5.43,0,0,1,.06.55,4.29,4.29,0,0,1,0,.49c0,.31,0,.57,0,.75v.29l.06-.28c0-.18.08-.43.13-.74s0-.33.06-.51,0-.37.06-.57,0-.4,0-.62,0-.21,0-.32,0-.22,0-.33,0-.22-.06-.33,0-.21-.08-.32l0-.16-.06-.16c0-.1-.07-.2-.11-.3s-.17-.37-.25-.54L45.7,20a4.77,4.77,0,0,0,.82-.36l.21.2a2.44,2.44,0,0,1,.27.29c.08.09.15.19.21.27a1.72,1.72,0,0,1,.12.22l0,.08v-.09a1,1,0,0,0,0-.26c0-.11,0-.24,0-.38s0-.28-.07-.43-.05-.24-.08-.36a12.72,12.72,0,0,0,2-1.88l.11.07.34.19.38.2c.26.14.55.27.83.4.58.26,1.16.49,1.6.64l.73.24s-.26-.16-.64-.42-.88-.63-1.34-1c-.24-.19-.47-.39-.67-.58l-.3-.28-.25-.25L50,16.45a11.24,11.24,0,0,0,1-1.53l2.28.43L51.34,14a3.78,3.78,0,0,0,.22-.81l.17,0,.28.06a5.15,5.15,0,0,0,.59.11c.21,0,.42.06.64.06s.44,0,.66,0h.33l.32,0,.63-.08.57-.13c.18,0,.34-.09.5-.14l.22-.07.19-.07.31-.13.27-.12-.29.07-.32.06-.2,0-.23,0-.5.05h-.56l-.53,0a42.49,42.49,0,0,1,38.8-8.24h0l-.35.16L92.69,5c-.25.08-.49.17-.73.23l-.35.09-.35.08-.33.08-.3.06-.55.1-.41.07-.37.06h.8l.55,0H91l.34,0,.36,0,.37,0a7.56,7.56,0,0,0,.79-.12l.4-.09a2.77,2.77,0,0,0,.41-.12,2.7,2.7,0,0,0,.4-.14l.4-.17q.38-.2.72-.42l.33-.23.29-.23.52-.43.1-.09a5.52,5.52,0,0,0,.95,1.23,3.77,3.77,0,0,1-.31.42,3.87,3.87,0,0,1-.32.37l-.16.17-.16.13a2.37,2.37,0,0,1-.25.19l-.1.06h.12l.32,0,.22-.06L96.94,6l.5-.2.6-.31a18.89,18.89,0,0,0,3.38,2.25l0,0c0,.1-.07.2-.11.31s-.1.3-.15.46-.1.33-.14.51-.1.37-.14.56-.09.37-.13.57c-.16.76-.28,1.53-.34,2.11s-.08,1-.08,1,.09-.37.28-.92.45-1.26.76-2c.08-.18.15-.35.24-.52s.16-.33.24-.49l.24-.45.22-.39.15-.24a19.08,19.08,0,0,0,2.65,1l.09,3.09.92-2.86a5.44,5.44,0,0,0,1.48.07,1.48,1.48,0,0,1,0,.21c0,.11,0,.23,0,.34v.37c0,.12,0,.25,0,.38l0,.4c0,.26.08.54.14.81s.13.56.2.83.17.54.27.8.22.51.32.75.22.46.35.67l.17.3.17.28c.11.18.22.33.32.47l.26.35.23.3s-.06-.12-.18-.33l-.21-.38c-.07-.15-.16-.32-.24-.51s-.08-.19-.13-.29l-.12-.32c-.09-.21-.15-.45-.24-.69s-.14-.49-.19-.75-.1-.53-.14-.79v0a41.89,41.89,0,0,1,7.87,8.55l3.3,6.37h0c.42.77.79,1.56,1.14,2.36.17.4.34.81.5,1.21s.32.81.47,1.23.29.82.42,1.24.25.84.37,1.26.21.79.3,1.19l3-.49C125.77,34.41,125.45,33.22,125.07,32Zm-75-18.17a6.75,6.75,0,0,1-.67,1.35,7.18,7.18,0,0,1-.48.69,8.61,8.61,0,0,1-.55.68c-.19.21-.39.43-.59.62a6.53,6.53,0,0,1-.62.57,6.84,6.84,0,0,1-1.25.86,2.69,2.69,0,0,1-1,.32,1,1,0,0,1-.3,0l-.08,0h.08a.89.89,0,0,0,.27-.07,3.21,3.21,0,0,0,.81-.55c.31-.27.66-.62,1-1l.55-.59.55-.62.55-.63c.17-.21.34-.41.5-.62a11.32,11.32,0,0,0,.84-1.14,3.18,3.18,0,0,0,.45-.88.82.82,0,0,0,0-.27.31.31,0,0,0,0-.11v0a.14.14,0,0,1,0,.07.68.68,0,0,1,.06.3A2.6,2.6,0,0,1,50.1,13.87Zm57.76-6.13a.18.18,0,0,1-.08.06.9.9,0,0,1-.35.14,3.79,3.79,0,0,1-1.36,0,10.6,10.6,0,0,1-1.84-.47c-.33-.11-.66-.23-1-.37s-.67-.28-1-.44a16.18,16.18,0,0,1-1.89-1,10.86,10.86,0,0,1-1.5-1.15A4,4,0,0,1,98,3.43a1.43,1.43,0,0,1-.14-.36c0-.09,0-.13,0-.13l0,0a.2.2,0,0,0,0,.08,1.37,1.37,0,0,0,.22.29,5.89,5.89,0,0,0,1,.77,36.81,36.81,0,0,0,3.46,1.83l1,.45.94.42c.61.27,1.19.5,1.69.68a4.78,4.78,0,0,0,1.23.29,1.29,1.29,0,0,0,.36,0l.09,0h0Z"/><path class="cls-27" d="M87.9,55.12a11.28,11.28,0,0,1,2.73,2.41c4.23,5.07,4.55,13.23,4.55,13.23a60.12,60.12,0,0,0,2.62-8.7h0a36.9,36.9,0,0,0,.62-4c1.3-13.31-7.19-15-7.19-15Z"/><path class="cls-10" d="M91.43,43.1l.08,0,.25.09a7.45,7.45,0,0,1,.89.41,10.59,10.59,0,0,1,1.28.82,9.81,9.81,0,0,1,1.42,1.35,10.71,10.71,0,0,1,1.32,1.91,13.56,13.56,0,0,1,1,2.39,16.67,16.67,0,0,1,.55,2.71c0,.23,0,.47.07.71s0,.47,0,.71l0,.72q0,.36,0,.72a27.13,27.13,0,0,1-.18,2.87c0,.24-.05.47-.08.71l0,.35-.06.34c-.07.46-.14.92-.22,1.36s-.18.88-.26,1.31-.2.84-.29,1.25c-.18.81-.4,1.57-.58,2.27l-.14.51-.15.49-.27.9c-.16.57-.33,1.06-.47,1.46l-.41,1.27.49-1.24c.16-.39.35-.87.54-1.43s.44-1.19.65-1.89.46-1.45.66-2.26c.1-.41.23-.82.32-1.25s.19-.87.29-1.31c.16-.9.34-1.83.44-2.79a28.06,28.06,0,0,0,.2-2.91c0-.25,0-.49,0-.74s0-.49,0-.73,0-.49-.06-.73,0-.48-.07-.72L98.5,52c0-.23-.09-.46-.14-.7-.08-.46-.23-.91-.35-1.36A12.74,12.74,0,0,0,97,47.55a10.36,10.36,0,0,0-1.41-1.92A8.87,8.87,0,0,0,94,44.32a9.39,9.39,0,0,0-1.33-.77,7.48,7.48,0,0,0-.93-.35l-.25-.07Z"/><path class="cls-9" d="M91.52,44.11l.16.1.41.32c.17.15.38.31.6.52s.45.46.72.72.51.57.76.92l.19.25a2.56,2.56,0,0,1,.2.26c.12.19.25.37.38.56s.24.39.38.59l.19.3.1.15.09.16.34.66c.06.11.12.22.17.33l.14.35.27.7c0,.12.08.24.12.36l.1.36a12.15,12.15,0,0,1,.36,1.41c0,.24.09.47.14.69s.09.45.11.66q.08.66.15,1.23c0,.19.05.38.05.55l0,.5c0,.31,0,.59,0,.81l0,.71h.11l.05-.7c0-.23,0-.51.06-.82l0-.51c0-.17,0-.36,0-.55,0-.4,0-.82,0-1.27a5.6,5.6,0,0,0,0-.69c0-.23,0-.47-.08-.72a11.3,11.3,0,0,0-.25-1.49l-.08-.39c0-.13-.06-.25-.1-.38L97.17,50a12.67,12.67,0,0,0-.56-1.49l-.07-.19-.09-.17-.18-.35-.18-.34c-.07-.12-.13-.23-.2-.33A8.17,8.17,0,0,0,95,46c-.17-.17-.32-.33-.49-.47l-.49-.4c-.16-.12-.33-.23-.49-.33a3.47,3.47,0,0,0-.45-.26c-.15-.07-.28-.15-.41-.2l-.36-.15a4.3,4.3,0,0,0-.53-.14l-.19,0Z"/><path class="cls-28" d="M75.68,55.12a11.52,11.52,0,0,0-2.74,2.41C68.71,62.6,68.4,70.76,68.4,70.76a58.89,58.89,0,0,1-2.62-8.7h0a37.06,37.06,0,0,1-.63-4c-1.3-13.31,7.2-15,7.2-15Z"/><path class="cls-10" d="M72.15,43.1l-.09,0-.25.07a8.12,8.12,0,0,0-.92.35,10,10,0,0,0-1.34.77A9.22,9.22,0,0,0,68,45.63a10.36,10.36,0,0,0-1.41,1.92A12.74,12.74,0,0,0,65.57,50c-.12.45-.27.9-.36,1.36,0,.24-.1.47-.14.7l-.1.72c0,.24,0,.48-.07.72s-.05.49-.06.73l0,.73c0,.25,0,.49,0,.74a28.06,28.06,0,0,0,.2,2.91c.1,1,.27,1.89.44,2.79l.29,1.31c.09.43.22.84.32,1.25.2.81.45,1.56.66,2.26s.45,1.33.65,1.89.38,1,.53,1.43l.5,1.24L68,69.49c-.13-.4-.3-.89-.46-1.46-.09-.28-.17-.58-.27-.9l-.15-.49L67,66.13c-.19-.7-.4-1.46-.58-2.27-.1-.41-.21-.82-.29-1.25s-.17-.86-.26-1.31-.15-.9-.22-1.36l-.06-.34,0-.35c0-.24-.06-.47-.08-.71a27.13,27.13,0,0,1-.18-2.87,5.77,5.77,0,0,1,0-.72l0-.72c0-.24,0-.47,0-.71s0-.48.07-.71a17.81,17.81,0,0,1,.54-2.71,13.57,13.57,0,0,1,1-2.39,11.22,11.22,0,0,1,1.31-1.91,10.39,10.39,0,0,1,1.43-1.35,10.59,10.59,0,0,1,1.28-.82,7.45,7.45,0,0,1,.89-.41l.25-.09Z"/><path class="cls-9" d="M72,44l-.19,0a4.3,4.3,0,0,0-.53.14l-.36.15c-.13.05-.27.13-.41.2a4.39,4.39,0,0,0-.46.26l-.48.33-.49.4a4.34,4.34,0,0,0-.49.47,8.17,8.17,0,0,0-.92,1.14,1.81,1.81,0,0,0-.2.33l-.18.34-.18.35-.09.17-.08.19A14.69,14.69,0,0,0,66.41,50l-.23.76a2.66,2.66,0,0,0-.1.38l-.08.39A9.86,9.86,0,0,0,65.75,53l-.08.72c0,.24-.06.47-.06.69,0,.45,0,.87,0,1.27,0,.19,0,.38,0,.55l0,.51c0,.31,0,.59.06.82l0,.7h.11l0-.71c0-.22,0-.5,0-.81,0-.16,0-.32,0-.5s0-.36.06-.55c0-.38.09-.79.15-1.23a5.67,5.67,0,0,1,.11-.66l.14-.69a12.15,12.15,0,0,1,.36-1.41l.1-.36c0-.12.07-.24.12-.36l.27-.7.14-.35a2.59,2.59,0,0,1,.17-.33l.34-.66L68,48.8a1.3,1.3,0,0,0,.1-.15l.2-.3c.13-.2.24-.41.38-.59s.26-.37.38-.56a2.48,2.48,0,0,1,.19-.26l.2-.25c.25-.35.52-.64.76-.92s.49-.52.72-.72.43-.37.6-.52l.41-.32.16-.1Z"/><path class="cls-29" d="M70.54,29.52c0,9.81,4.1,22.05,5.76,27.67h11C88.94,51.57,93,39.33,93,29.52A16.63,16.63,0,0,0,90.47,21a30.11,30.11,0,0,0-8.17-8.5.87.87,0,0,0-1,0A30,30,0,0,0,73.11,21,16.54,16.54,0,0,0,70.54,29.52Z"/><path class="cls-30" d="M77.61,38a6.82,6.82,0,1,0-1.22-9.58A6.84,6.84,0,0,0,77.61,38Z"/><g class="cls-31"><circle class="cls-9" cx="81.9" cy="32.68" r="5.66" transform="translate(-1.22 62.11) rotate(-41.25)"/></g><path class="cls-10" d="M77.32,29.13a5.66,5.66,0,1,0,7.94-1A5.66,5.66,0,0,0,77.32,29.13Z"/><path class="cls-9" d="M77.39,35.66a5,5,0,0,0,.68.78,3.89,3.89,0,0,0,.43.38,5.36,5.36,0,0,0,7.88-7,5.05,5.05,0,0,0-1.31-1.47,5.37,5.37,0,0,0-7.68,7.32Z"/><path class="cls-9" d="M77.45,37.81a6.82,6.82,0,0,0,9.09-10.13A6.83,6.83,0,0,1,77.61,38a6.59,6.59,0,0,1-.73-.66A5.27,5.27,0,0,0,77.45,37.81Z"/><path class="cls-10" d="M76.29,57.19c0,.6,2.46,1.09,5.5,1.09s5.49-.49,5.49-1.09-2.46-1.09-5.49-1.09S76.29,56.59,76.29,57.19Z"/><ellipse class="cls-32" cx="81.79" cy="57.48" rx="4.81" ry="0.96"/><rect class="cls-33" x="76.98" y="57.42" width="9.62" height="2.8"/><path class="cls-34" d="M77,60.22c0,.53,2.15,1,4.81,1s4.81-.42,4.81-1-2.16-1-4.81-1S77,59.69,77,60.22Z"/><path class="cls-10" d="M77.82,60.54c0,.44,1.78.79,4,.79s4-.35,4-.79-1.78-.79-4-.79S77.82,60.11,77.82,60.54Z"/><rect class="cls-10" x="77.82" y="60.54" width="7.94" height="1.12"/><ellipse class="cls-10" cx="81.79" cy="61.66" rx="3.97" ry="0.79"/><path class="cls-9" d="M78.37,61.66a.19.19,0,0,0,0,.1.87.87,0,0,0,.37.22,12.85,12.85,0,0,0,6,0,.87.87,0,0,0,.37-.22.19.19,0,0,0,0-.1c0-.19-.39-.36-1-.49a13.45,13.45,0,0,0-1.8-.18H81.26a11.31,11.31,0,0,0-1.83.18C78.78,61.29,78.37,61.47,78.37,61.66Z"/><path class="cls-35" d="M81.79,19.41a27,27,0,0,0-8.51,1.27,30,30,0,0,1,8-8.23.87.87,0,0,1,1,0,30.27,30.27,0,0,1,8,8.23A27,27,0,0,0,81.79,19.41Z"/><path class="cls-10" d="M87.28,57.19l1.3-4.08c.4-1.3.89-2.89,1.42-4.71s1.08-3.9,1.59-6.18a74.34,74.34,0,0,0,1.34-7.44l.12-1,.06-.51,0-.51c.06-.69.12-1.39.13-2.1,0-.35,0-.71,0-1.06s0-.71,0-1.09A15,15,0,0,0,93,26.31a17.53,17.53,0,0,0-1.53-4.24c-.18-.34-.36-.67-.55-1l-.15-.25-.15-.25-.31-.48c-.2-.32-.43-.64-.65-1s-.46-.62-.71-.92a29.29,29.29,0,0,0-3.19-3.41c-.58-.53-1.17-1.05-1.78-1.53-.31-.25-.62-.49-.94-.72l-.48-.35,0,0,0,0,0,0,0,0L82.18,12a1.3,1.3,0,0,0-.78,0l-.19.08-.15.1-.48.35c-.32.23-.63.47-.94.71-.61.49-1.21,1-1.78,1.54a29.43,29.43,0,0,0-3.2,3.41,23.63,23.63,0,0,0-2.51,3.86,18,18,0,0,0-1.54,4.24,16.49,16.49,0,0,0-.31,2.19c0,.37,0,.72,0,1.09l0,1.06c0,.7.08,1.4.13,2.09,0,.18,0,.35,0,.52l.06.51c0,.34.08.68.11,1,.34,2.67.83,5.16,1.34,7.44s1.08,4.35,1.6,6.18,1,3.41,1.42,4.71l1.3,4.08-1.18-4.12c-.37-1.31-.82-2.9-1.3-4.73s-1-3.92-1.48-6.2-.93-4.77-1.22-7.42c0-.33-.07-.66-.1-1,0-.17,0-.33,0-.5l0-.51c0-.68-.1-1.36-.1-2.07,0-.35,0-.7,0-1.06s0-.69,0-1a14,14,0,0,1,.31-2.11,19.26,19.26,0,0,1,4-7.84,30.8,30.8,0,0,1,3.14-3.33c.57-.51,1.16-1,1.76-1.49l.92-.7.47-.33.09-.06.09,0a.57.57,0,0,1,.18,0l.18,0,.08,0h0l0,0s0,0,0,0l0,0,.47.33.92.7c.6.48,1.19,1,1.75,1.49a29.94,29.94,0,0,1,3.15,3.33c.24.29.46.6.69.9s.43.6.64.92l.3.48.15.23.15.25c.19.32.36.64.53,1a16.82,16.82,0,0,1,1.51,4.09,15.34,15.34,0,0,1,.31,2.11c0,.34,0,.7,0,1.05l0,1.05c0,.7-.06,1.39-.1,2.07l0,.51c0,.17,0,.33,0,.5,0,.34-.07.67-.1,1-.29,2.65-.74,5.14-1.22,7.42s-1,4.36-1.48,6.2-.93,3.42-1.31,4.73Z"/><path class="cls-9" d="M87.28,57.19a.22.22,0,0,0,0-.13.78.78,0,0,0-.26-.25,4.37,4.37,0,0,0-1.24-.44,14.07,14.07,0,0,0-1.84-.28c-.67-.06-1.4-.1-2.12-.1s-1.45,0-2.12.1a14.07,14.07,0,0,0-1.84.28,4.37,4.37,0,0,0-1.24.44.83.83,0,0,0-.27.25c0,.08,0,.13,0,.13s0,0,0-.12a.71.71,0,0,1,.27-.22,4.75,4.75,0,0,1,1.25-.36,16.69,16.69,0,0,1,1.82-.21c.67-.05,1.39-.08,2.11-.07s1.44,0,2.11.07a17,17,0,0,1,1.82.21,4.55,4.55,0,0,1,1.24.36.68.68,0,0,1,.28.22A.17.17,0,0,1,87.28,57.19Z"/><path class="cls-10" d="M86.6,57.48s0,0,0-.11a.58.58,0,0,0-.24-.22,3.5,3.5,0,0,0-1.08-.38,14.63,14.63,0,0,0-1.6-.25c-.6-.05-1.23-.08-1.86-.08s-1.27,0-1.86.08a14.63,14.63,0,0,0-1.6.25,3.58,3.58,0,0,0-1.09.38.54.54,0,0,0-.23.22.31.31,0,0,0,0,.11.22.22,0,0,1,0-.11.55.55,0,0,1,.24-.19,3.77,3.77,0,0,1,1.09-.32,13.35,13.35,0,0,1,1.59-.19c.59-.05,1.22-.07,1.85-.07s1.26,0,1.84.07a13.29,13.29,0,0,1,1.6.19,4.28,4.28,0,0,1,1.09.31.74.74,0,0,1,.24.2C86.6,57.43,86.59,57.48,86.6,57.48Z"/><path class="cls-9" d="M86.6,60.22s0,0,0-.11a.58.58,0,0,0-.24-.22,3.78,3.78,0,0,0-1.08-.38,12.67,12.67,0,0,0-1.6-.24c-.6-.06-1.23-.08-1.86-.09s-1.27,0-1.86.09a12.67,12.67,0,0,0-1.6.24,3.87,3.87,0,0,0-1.09.38.54.54,0,0,0-.23.22.31.31,0,0,0,0,.11.25.25,0,0,1,0-.11.55.55,0,0,1,.24-.19,4.11,4.11,0,0,1,1.09-.32,13.35,13.35,0,0,1,1.59-.19c.59,0,1.22-.07,1.85-.06a18.35,18.35,0,0,1,1.84.06,13.29,13.29,0,0,1,1.6.19,4.23,4.23,0,0,1,1.09.32.62.62,0,0,1,.24.19C86.6,60.18,86.59,60.22,86.6,60.22Z"/><path class="cls-10" d="M85.76,60.54a.32.32,0,0,0,0-.09.6.6,0,0,0-.2-.18,3.74,3.74,0,0,0-.89-.31,11.18,11.18,0,0,0-1.33-.19,16.76,16.76,0,0,0-3.06,0,10.88,10.88,0,0,0-1.33.19,3.58,3.58,0,0,0-.89.31.6.6,0,0,0-.2.18.13.13,0,0,0,0,.09.23.23,0,0,1,0-.09.5.5,0,0,1,.2-.16,3.52,3.52,0,0,1,.89-.27c.39-.07.84-.12,1.32-.16s1,0,1.53,0,1,0,1.52,0,.94.09,1.32.16a3.48,3.48,0,0,1,.9.27.5.5,0,0,1,.2.16A.23.23,0,0,1,85.76,60.54Z"/><path class="cls-10" d="M77.82,61.66a.13.13,0,0,0,0,.09.49.49,0,0,0,.19.19,3.23,3.23,0,0,0,.9.33,8.92,8.92,0,0,0,1.32.21,14.86,14.86,0,0,0,3.08,0,8.92,8.92,0,0,0,1.32-.21,3.23,3.23,0,0,0,.9-.33.49.49,0,0,0,.19-.19.13.13,0,0,0,0-.09.23.23,0,0,1,0,.09.49.49,0,0,1-.2.15,3.31,3.31,0,0,1-.9.25,11.65,11.65,0,0,1-1.32.14c-.48,0-1,.05-1.52.05s-1,0-1.52-.05A11.4,11.4,0,0,1,79,62.15a3.31,3.31,0,0,1-.9-.25.49.49,0,0,1-.2-.15A.19.19,0,0,1,77.82,61.66Z"/><path class="cls-9" d="M85.76,61.66a.32.32,0,0,0,0-.09.51.51,0,0,0-.2-.18,3.34,3.34,0,0,0-.89-.31c-.39-.08-.84-.15-1.33-.2s-1-.06-1.53-.06-1.05,0-1.53.06a13.07,13.07,0,0,0-1.33.2,2.92,2.92,0,0,0-.89.31.51.51,0,0,0-.2.18.13.13,0,0,0,0,.09.19.19,0,0,1,0-.09.5.5,0,0,1,.2-.16,3.52,3.52,0,0,1,.89-.27c.39-.07.84-.12,1.32-.16s1-.06,1.53,0a15,15,0,0,1,1.52,0c.49,0,.94.09,1.32.16a3.13,3.13,0,0,1,.9.27.5.5,0,0,1,.2.16A.19.19,0,0,1,85.76,61.66Z"/><path class="cls-10" d="M85.18,61.76a.18.18,0,0,0,0-.24.64.64,0,0,0-.22-.14,2.27,2.27,0,0,0-.5-.17,9.38,9.38,0,0,0-1-.17c-.35,0-.7-.06-1.06-.07l-.52,0h-.51s0,0,0,0h-.39l-.39,0-.79.1a4.91,4.91,0,0,0-.78.17,1.73,1.73,0,0,0-.37.16.45.45,0,0,0-.15.13.19.19,0,0,0,0,.19.17.17,0,0,1,0-.19.44.44,0,0,1,.15-.12,1.51,1.51,0,0,1,.37-.15,6.57,6.57,0,0,1,.77-.16c.26,0,.53-.07.79-.09l.39,0h.39s0,0,0,0h1.07a9.24,9.24,0,0,1,1.05.06,7.25,7.25,0,0,1,1,.16,2.88,2.88,0,0,1,.5.15,1.71,1.71,0,0,1,.23.13A.19.19,0,0,1,85.18,61.76Z"/><path class="cls-10" d="M77.39,35.66a5,5,0,0,0,.68.78,10.51,10.51,0,0,1,3.72-5.88C78.64,31.73,77.5,35.3,77.39,35.66Z"/><path class="cls-10" d="M78.5,36.82a5.42,5.42,0,0,0,2.21,1,5.58,5.58,0,0,0,1.68.07,5.32,5.32,0,0,0,3.64-2,5.38,5.38,0,0,0,.35-6.06,25,25,0,0,0-5.31,5.63c.37-2.74,3.35-5.69,3.45-5.78C81.27,31,78.5,36.82,78.5,36.82Z"/><path class="cls-9" d="M80.71,37.84a5.58,5.58,0,0,0,1.68.07c0-1.46,2.49-4.74,2.56-4.84A10.52,10.52,0,0,0,80.71,37.84Z"/><path class="cls-9" d="M81.32,18.76a17.46,17.46,0,0,0-6.12.84s3-4.47,6.59-6.44C81.79,13.16,76.82,17.86,81.32,18.76Z"/><path class="cls-9" d="M81.57,20.05a24.81,24.81,0,0,0-7.35.9s-7.5,6.27,2.42,35C76.64,56,67.89,23.82,81.57,20.05Z"/><path class="cls-9" d="M85.64,60.85v.48s-.1-1.13-2.83-1.32a7.54,7.54,0,0,1,2.52.41A.44.44,0,0,1,85.64,60.85Z"/><path class="cls-9" d="M80.77,60.77s-1.68.12-2.3-.58a1.2,1.2,0,0,0-.38.17.38.38,0,0,0-.16.31v.7A5.8,5.8,0,0,1,80.77,60.77Z"/><path class="cls-9" d="M85.55,57.08a1.14,1.14,0,0,1,.86,1.11v1.55s.09-2.15-3.4-2.93A12,12,0,0,1,85.55,57.08Z"/><path class="cls-9" d="M80.54,59.11s-2.22-.28-2.72-1.92a1.58,1.58,0,0,0-.63.23V59.8A6.6,6.6,0,0,1,80.54,59.11Z"/><path class="cls-10" d="M77,60.22s0-.18,0-.44,0-.61,0-1,0-.7,0-1,0-.44,0-.44,0,.18,0,.44,0,.61,0,1,0,.7,0,1S77,60.22,77,60.22Z"/><path class="cls-10" d="M86.6,57.42s0,.18,0,.44,0,.61,0,1,0,.7,0,1,0,.44,0,.44,0-.18,0-.44,0-.61,0-1,0-.7,0-1S86.6,57.42,86.6,57.42Z"/><path class="cls-10" d="M77.82,61.66s0-.07,0-.17,0-.25,0-.39,0-.28,0-.38,0-.18,0-.18,0,.07,0,.18,0,.24,0,.38,0,.28,0,.39S77.82,61.66,77.82,61.66Z"/><path class="cls-10" d="M85.76,60.54s0,.07,0,.18,0,.24,0,.38,0,.28,0,.39,0,.17,0,.17,0-.07,0-.17,0-.25,0-.39,0-.28,0-.38S85.76,60.54,85.76,60.54Z"/><polygon class="cls-36" points="26.62 82.9 32.47 87.86 23.97 94.46 18.24 115.98 12.39 111.08 15.55 96.9 9.69 92 26.62 82.9"/><path class="cls-37" d="M16,96.47l1-4.8,15.16-3.45L32,92.82,27,94l-2.54,20.28-5.85,1.33,2.54-20.28Z"/><path class="cls-38" d="M18.24,116,20.78,95.7l-4.85,1.11,0-.34.35,0-.35,0,0,.34-.38.09,1.12-5.5,15.8-3.6-.14,5.27-5,1.14L24.8,114.49,18.24,116Zm3.33-21.12L19,115.14,24.18,114l2.54-20.28,4.92-1.12.1-3.94-14.5,3.31L16.4,96l5.17-1.18Z"/><path class="cls-39" d="M12.39,111.08,14.93,90.8l-4.86,1.11,0-.34.35,0-.35,0,0,.34L9.69,92l1.13-5.5,15.8-3.6-.15,5.27-5,1.14-2.54,20.28-6.55,1.49ZM15.72,90l-2.54,20.28,5.14-1.17,2.54-20.28,4.92-1.12.11-3.94L11.38,87l-.84,4.1L15.72,90Z"/><polygon class="cls-40" points="46.37 84.57 40.51 79.67 29.43 87.67 24.9 108.17 30.75 113.07 43.85 104.68 37.99 99.78 44.81 94.81 38.95 89.91 46.37 84.57"/><path class="cls-41" d="M31.15,112.65l3.13-25L46,85l-.59,4.71-6,1.37-.68,5.46,5.7-1.3-.56,4.47-5.7,1.3-.69,5.47,6-1.37L42.84,110Z"/><path class="cls-42" d="M31.11,113l0-.34.35-.08-.35.08,0,.34-.36.08L34,87.4l12.4-2.83L45.69,90l-6,1.37-.6,4.78,5.71-1.3L44.16,100l-5.7,1.3-.6,4.79,6-1.37-.7,5.56-12,2.75Zm11.42-3.27.53-4.2-6,1.37.77-6.15,5.7-1.3L44,95.65,38.31,97l.77-6.14,6-1.37.51-4-11,2.51-3,24.31,11-2.51Z"/><path class="cls-43" d="M25.25,108.09l0-.34.36-.08-.36.08,0,.34-.35.08L28.11,82.5l12.4-2.83-.67,5.39-6,1.37-.6,4.78,5.7-1.3-.64,5.15-5.71,1.3-.6,4.79,6-1.37-.69,5.56-12,2.75Zm11.43-3.27.52-4.2-6,1.37L32,95.84l5.71-1.3.47-3.79-5.7,1.3.77-6.14,6-1.37.5-4L28.73,83l-3,24.31,11-2.51Z"/><polygon class="cls-44" points="49.02 77.74 54.88 82.63 60.39 75.15 66.24 80.05 56.94 93.15 55.7 107.39 49.84 102.49 45.19 109.78 39.33 104.88 49.02 77.74"/><path class="cls-45" d="M59.37,81.94l6.24-1.42L58.67,92l3.56,13.62L56,107l-2.18-9.12-1.51,2.61-.94,7.57-5.78,1.31,3.13-25,5.77-1.31-1.12,9Z"/><path class="cls-46" d="M55.69,107.39l-2.06-8.62-1,1.71-1,7.83-6.49,1.47L48.4,84.11l6.48-1.48-1,7.94,5.19-8.71.12-.21,7-1.6L59.05,91.89l3.64,13.9-7,1.6Zm.6-.8,5.49-1.25L58.29,92,65,81l-5.43,1.24-5.89,9.88H53l1.08-8.63L49,84.63,46,108.94l5.08-1.15.91-7.31L54,97l2.31,9.62Z"/><path class="cls-47" d="M49.84,102.49l-2.06-8.62-1,1.71-1,7.83-6.48,1.47,3.21-25.67L49,77.74l-1,7.93L53.22,77l.12-.2,7-1.6L53.2,87l3.63,13.9-7,1.6Zm.59-.8,5.49-1.25L52.44,87.11l6.68-11-5.44,1.24L47.8,87.21h-.65l1.09-8.64-5.08,1.16-3,24.31,5.07-1.15.92-7.31,2-3.51,2.3,9.62Z"/><polygon class="cls-48" points="58.31 100.47 64.17 105.37 69.63 97.89 75.49 102.79 83.84 75.95 77.99 71.05 72.78 78.47 66.92 73.57 58.31 100.47"/><path class="cls-49" d="M64.56,105l3.13-25,4.81-1.09,3.92,11L78,77.62l5.49-1.25-3.13,25-4.56,1-4.1-11-1.54,12.24Z"/><path class="cls-50" d="M75.49,102.79,71.81,93l-1.38,11-5.91,1.35,0-.34.35-.08-.35.08,0,.34-.35.08L67.38,79.7l5.4-1.23,3.5,9.85,1.37-11L83.85,76l-3.22,25.67-5.14,1.17Zm-5.68.64,1.49-11.9.7-.29L76,102l4-.91,3-24.31-4.79,1.09L76.78,89.81l-.7.29L72.23,79.26l-4.23,1-3,24.31,4.85-1.1Z"/><path class="cls-51" d="M69.63,97.89,66,88.07,64.58,99l-5.91,1.35,0-.34.35-.08-.35.08,0,.34-.36.08L61.53,74.8l5.39-1.23,3.5,9.85,1.38-11L78,71.05,74.78,96.72l-5.15,1.17Zm.55-.78,4-.91,3-24.31L72.42,73l-1.5,11.93-.69.29L66.38,74.36l-4.23,1-3,24.31L64,98.53l1.49-11.9.69-.29,4,10.77Z"/><path class="cls-9" d="M10.12,91.57l1-4.8,15.15-3.45-.12,4.6-5,1.13-2.54,20.28-5.85,1.33,2.54-20.28Z"/><path class="cls-9" d="M25.29,107.75l3.13-25,11.7-2.67-.59,4.71-6,1.37-.69,5.46,5.71-1.3L38,94.8l-5.71,1.3-.68,5.47,6-1.37L37,105.08Z"/><path class="cls-9" d="M53.52,77l6.24-1.42L52.82,87.05l3.56,13.62-6.24,1.42L48,93l-1.5,2.61-1,7.57-5.77,1.31,3.12-25,5.78-1.31-1.12,9Z"/><path class="cls-9" d="M58.71,100.05l3.13-25L66.65,74l3.92,11,1.54-12.27,5.49-1.25-3.13,25-4.57,1-4.1-11L64.27,98.79Z"/><polygon class="cls-52" points="79.78 93.77 85.29 98.43 95.45 94.69 100.99 73.35 95.18 68.48 84.53 73.54 79.78 93.77"/><path class="cls-53" d="M91.53,98.93a7.82,7.82,0,0,1-4.65-.06,5.14,5.14,0,0,1-2.67-2.31,9.06,9.06,0,0,1-1.1-3.82,23.56,23.56,0,0,1,.07-4.59,26.31,26.31,0,0,1,1.09-4.79,18.61,18.61,0,0,1,2.18-4.59A15.24,15.24,0,0,1,89.89,75a12.5,12.5,0,0,1,4.91-2.23,7.68,7.68,0,0,1,4.58.07,5.35,5.35,0,0,1,2.69,2.33,9.16,9.16,0,0,1,1.11,3.84,21.85,21.85,0,0,1-.1,4.56A27.89,27.89,0,0,1,102,88.43,19.05,19.05,0,0,1,99.86,93a14.87,14.87,0,0,1-3.43,3.7A12.27,12.27,0,0,1,91.53,98.93Zm2.63-21A4.4,4.4,0,0,0,92,79.25a8.81,8.81,0,0,0-1.46,2.22,13.43,13.43,0,0,0-.92,2.68,25.18,25.18,0,0,0-.5,2.7A23.76,23.76,0,0,0,89,89.58a10.15,10.15,0,0,0,.26,2.6,4,4,0,0,0,1,1.85,1.92,1.92,0,0,0,1.9.43,3.93,3.93,0,0,0,2.09-1.34,9.78,9.78,0,0,0,1.48-2.41,16.1,16.1,0,0,0,1-2.87,28.28,28.28,0,0,0,.5-2.8,22.47,22.47,0,0,0,.18-2.63A8.47,8.47,0,0,0,97,80a3.54,3.54,0,0,0-1-1.66A2.1,2.1,0,0,0,94.16,77.93Z"/><path class="cls-54" d="M86.65,99.2a5.44,5.44,0,0,1-2.77-2.4h0a9.49,9.49,0,0,1-1.13-3.92h0a24.22,24.22,0,0,1,.08-4.65h0a26.41,26.41,0,0,1,1.1-4.86h0a19.58,19.58,0,0,1,2.24-4.71h0a15.77,15.77,0,0,1,3.57-3.86h0a12.77,12.77,0,0,1,5.1-2.33h0a8,8,0,0,1,4.76.08h0A5.55,5.55,0,0,1,102.39,75h0a9.24,9.24,0,0,1,1.14,3.94h0a21.83,21.83,0,0,1-.1,4.63h0a27.12,27.12,0,0,1-1.09,4.89h0a19.08,19.08,0,0,1-2.2,4.68h0a15.44,15.44,0,0,1-3.56,3.84h0a12.86,12.86,0,0,1-5.09,2.33h0l0-.34,0-.34a11.8,11.8,0,0,0,4.71-2.14h0a14.47,14.47,0,0,0,3.3-3.56h0a18.32,18.32,0,0,0,2.09-4.45h0a26.2,26.2,0,0,0,1-4.75h0a21.28,21.28,0,0,0,.11-4.5h0a9,9,0,0,0-1.09-3.74h0a5.11,5.11,0,0,0-2.58-2.24h0a7.4,7.4,0,0,0-4.4-.06h0a11.8,11.8,0,0,0-4.71,2.14h0a14.66,14.66,0,0,0-3.32,3.58h0a19,19,0,0,0-2.13,4.48h0a25.62,25.62,0,0,0-1.07,4.71h0a23.77,23.77,0,0,0-.07,4.53h0a8.88,8.88,0,0,0,1.07,3.73h0a5.05,5.05,0,0,0,2.57,2.22h0a7.47,7.47,0,0,0,4.47,0h0l0,.34,0,.34a8.13,8.13,0,0,1-4.84-.07Zm3.24-4.89a4.16,4.16,0,0,1-1-2h0a11,11,0,0,1-.27-2.66h0a27,27,0,0,1,.19-2.77h0a25.83,25.83,0,0,1,.5-2.74h0a13.94,13.94,0,0,1,1-2.77h0a9.64,9.64,0,0,1,1.54-2.35h0a4.89,4.89,0,0,1,2.37-1.47h0a2.36,2.36,0,0,1,2.1.46h0a3.79,3.79,0,0,1,1,1.76h0a8.6,8.6,0,0,1,.3,2.48h0A25.67,25.67,0,0,1,97.47,85h0c-.11.88-.29,1.83-.52,2.84h0a16.34,16.34,0,0,1-1,2.94h0a10.42,10.42,0,0,1-1.56,2.54h0A4.6,4.6,0,0,1,92,94.81h0a2.22,2.22,0,0,1-2.15-.5Zm2.37-14.89a8.56,8.56,0,0,0-1.36,2.09h0a13.06,13.06,0,0,0-.9,2.6h0c-.22.94-.38,1.83-.49,2.66h0c-.1.86-.16,1.76-.18,2.69h0A10,10,0,0,0,89.59,92h0a3.76,3.76,0,0,0,.89,1.76h0a1.67,1.67,0,0,0,1.64.38h0A3.43,3.43,0,0,0,93.94,93h0a9.65,9.65,0,0,0,1.4-2.28h0a15.31,15.31,0,0,0,.92-2.8h0a27.61,27.61,0,0,0,.5-2.76h0a21.81,21.81,0,0,0,.17-2.59h0a7.88,7.88,0,0,0-.28-2.33h0a3.24,3.24,0,0,0-.91-1.57h0a1.81,1.81,0,0,0-1.63-.36h0a3.88,3.88,0,0,0-1.85,1.15Zm1.83-1.15.07-.34-.07.34Z"/><path class="cls-55" d="M85.63,94.37l.05-.34,0-.34a11.93,11.93,0,0,0,4.71-2.14h0A14.24,14.24,0,0,0,93.72,88h0a18.35,18.35,0,0,0,2.1-4.45h0a27.07,27.07,0,0,0,1.05-4.75h0a21.28,21.28,0,0,0,.1-4.5h0a8.87,8.87,0,0,0-1.08-3.74h0a5.13,5.13,0,0,0-2.59-2.24h0a7.4,7.4,0,0,0-4.4-.06h0a11.93,11.93,0,0,0-4.71,2.14h0A14.42,14.42,0,0,0,80.88,74h0a18.25,18.25,0,0,0-2.13,4.48h0a25.62,25.62,0,0,0-1.07,4.71h0a23,23,0,0,0-.07,4.53h0a8.88,8.88,0,0,0,1.07,3.73h0a5,5,0,0,0,2.57,2.22h0a7.47,7.47,0,0,0,4.47,0h0l0,.34-.05.34a8.1,8.1,0,0,1-4.83-.07h0A5.36,5.36,0,0,1,78,91.9h0A9.34,9.34,0,0,1,76.9,88h0A24.2,24.2,0,0,1,77,83.33h0a27.25,27.25,0,0,1,1.1-4.86h0a20,20,0,0,1,2.24-4.71h0a16,16,0,0,1,3.58-3.86h0A12.77,12.77,0,0,1,89,67.57h0a8,8,0,0,1,4.76.08h0a5.55,5.55,0,0,1,2.79,2.41h0A9.53,9.53,0,0,1,97.68,74h0a22.51,22.51,0,0,1-.1,4.63h0a28,28,0,0,1-1.09,4.89h0a19.45,19.45,0,0,1-2.2,4.68h0A15.44,15.44,0,0,1,90.73,92h0a12.86,12.86,0,0,1-5.09,2.33h0Zm-1.59-5a4.16,4.16,0,0,1-1-2h0a10.12,10.12,0,0,1-.27-2.66h0A24.43,24.43,0,0,1,83,82h0a23.9,23.9,0,0,1,.5-2.74h0a13.92,13.92,0,0,1,1-2.77h0A9.68,9.68,0,0,1,86,74.18h0a4.91,4.91,0,0,1,2.38-1.48h0a2.37,2.37,0,0,1,2.09.47h0a3.72,3.72,0,0,1,1,1.76h0a8.6,8.6,0,0,1,.3,2.48h0a23.16,23.16,0,0,1-.18,2.67h0c-.11.88-.28,1.83-.51,2.84h0a17.16,17.16,0,0,1-1,2.94h0a10.74,10.74,0,0,1-1.56,2.54h0a4.58,4.58,0,0,1-2.39,1.53h0a2.2,2.2,0,0,1-2.14-.5Zm2.37-14.89A8.59,8.59,0,0,0,85,76.61h0a12.44,12.44,0,0,0-.89,2.6h0a24.85,24.85,0,0,0-.49,2.66h0a23.21,23.21,0,0,0-.18,2.69h0a10,10,0,0,0,.25,2.53h0a3.86,3.86,0,0,0,.9,1.76h0a1.67,1.67,0,0,0,1.64.38h0a3.47,3.47,0,0,0,1.82-1.17h0a9.13,9.13,0,0,0,1.39-2.28h0a15.33,15.33,0,0,0,.93-2.8h0c.22-1,.39-1.9.5-2.76h0a24.14,24.14,0,0,0,.17-2.59h0a8.22,8.22,0,0,0-.28-2.33h0a3.32,3.32,0,0,0-.91-1.57h0a1.81,1.81,0,0,0-1.63-.36h0a3.79,3.79,0,0,0-1.85,1.15Zm1.83-1.15L88.3,73l-.06.34Z"/><path class="cls-9" d="M85.68,94A7.86,7.86,0,0,1,81,94a5.22,5.22,0,0,1-2.67-2.31,9.36,9.36,0,0,1-1.1-3.82,23.58,23.58,0,0,1,.08-4.59,25.46,25.46,0,0,1,1.08-4.79,19,19,0,0,1,2.19-4.59A14.86,14.86,0,0,1,84,70.14,12.44,12.44,0,0,1,89,67.91a7.68,7.68,0,0,1,4.58.07,5.32,5.32,0,0,1,2.68,2.33,9.16,9.16,0,0,1,1.12,3.83,22,22,0,0,1-.11,4.57,27,27,0,0,1-1.07,4.82A18.65,18.65,0,0,1,94,88.09a15.09,15.09,0,0,1-3.43,3.71A12.46,12.46,0,0,1,85.68,94ZM88.3,73a4.42,4.42,0,0,0-2.12,1.32,8.78,8.78,0,0,0-1.45,2.22,13.45,13.45,0,0,0-.93,2.68,25,25,0,0,0-.49,2.7,26.19,26.19,0,0,0-.19,2.73,10,10,0,0,0,.27,2.59,4,4,0,0,0,.94,1.86,1.94,1.94,0,0,0,1.91.43,4,4,0,0,0,2.09-1.34,9.76,9.76,0,0,0,1.47-2.41,15.33,15.33,0,0,0,1-2.87c.23-1,.4-1.93.51-2.8a22.49,22.49,0,0,0,.17-2.63,8.13,8.13,0,0,0-.29-2.41,3.53,3.53,0,0,0-1-1.66A2.11,2.11,0,0,0,88.3,73Z"/><path class="cls-9" d="M99.7,65.78l11.92-2.92-.39,4.76-6.33,1.55-.46,5.53,6-1.48-.37,4.51-6.05,1.49-.87,10.46-5.59,1.37Z"/><path class="cls-56" d="M118,67.31l-6-4.88L99.38,65.52l0,.34L97.23,91.48l6,4.88,6.29-1.54.87-10.46,6-1.48.43-5.21h0L112.4,74l5.18-1.27Zm-6.8.31-6.33,1.55-.46,5.53,6-1.48-.37,4.51-6.05,1.49-.87,10.46-5.59,1.37L99.7,65.78l11.92-2.92Z"/><path class="cls-9" d="M111.77,87.7l2.09-25.27,11.54-2.82L125,64.37l-5.91,1.45-.46,5.52L124.27,70l-.38,4.52-5.62,1.37-.46,5.53,5.91-1.45-.41,4.94Z"/><path class="cls-57" d="M131.81,64.06l-6-4.88-12.23,3-2.14,26,6,4.89.35-.09L129.66,90l.46-5.62-4.49-3.64,4.61-1.13.43-5.21-4.49-3.64,5.17-1.27Zm-6.8.31-5.91,1.45-.46,5.52L124.27,70l-.38,4.52-5.62,1.37-.46,5.53,5.91-1.45-.41,4.94L111.77,87.7l2.09-25.27,11.54-2.82Z"/><path class="cls-9" d="M127.29,78a3.28,3.28,0,0,0,1.62,1.42,5,5,0,0,0,2.19.42,4,4,0,0,0,2.05-.67,3,3,0,0,0,1.25-1.83,3.32,3.32,0,0,0,0-1.93,2.2,2.2,0,0,0-1.17-1.28,5.94,5.94,0,0,0-1.82-.47,16.54,16.54,0,0,1-1.93-.31,5.41,5.41,0,0,1-1.69-.71,2.83,2.83,0,0,1-1.12-1.7,7,7,0,0,1-.26-1.85,12.08,12.08,0,0,1,.13-2,15,15,0,0,1,.41-1.89,8.59,8.59,0,0,1,.56-1.48,12.66,12.66,0,0,1,1.37-2.25,12,12,0,0,1,4.39-3.54,12.83,12.83,0,0,1,3-1,5.18,5.18,0,0,1,1-.13,9.91,9.91,0,0,1,1.09,0,6.05,6.05,0,0,1,1.05.17,3.34,3.34,0,0,1,.9.38L138.92,64a2.68,2.68,0,0,0-1.44-1.58,3.39,3.39,0,0,0-1.73-.1,4.72,4.72,0,0,0-2.47,1.45,5.07,5.07,0,0,0-1.18,2.58,2.33,2.33,0,0,0,.36,2,3.16,3.16,0,0,0,1.75.83c.84.13,1.62.28,2.35.43a5.71,5.71,0,0,1,1.87.73,3.67,3.67,0,0,1,1.26,1.45,6.18,6.18,0,0,1,.5,2.6,9,9,0,0,1-.38,2.75,9.24,9.24,0,0,1-1.08,2.48,7.59,7.59,0,0,1-1.3,1.56,10.58,10.58,0,0,1-1.56,1.17,11.65,11.65,0,0,1-1.67.81,14.5,14.5,0,0,1-1.7.54,15.16,15.16,0,0,1-1.66.3,12,12,0,0,1-1.67.1,8.77,8.77,0,0,1-1.5-.12,5.4,5.4,0,0,1-1.2-.34Z"/><path class="cls-58" d="M144.7,74.92l-5.51-4.47c-.13-.12-.27-.23-.41-.34a4.1,4.1,0,0,1,3-2.54,1.13,1.13,0,0,1,.18,0L145,70.06,146.67,62l-6-4.89-.13-.08a3.36,3.36,0,0,0-1-.4,5.62,5.62,0,0,0-1.1-.18,10.48,10.48,0,0,0-1.12,0,5.2,5.2,0,0,0-1,.15l-.56.12a12.81,12.81,0,0,0-2.55.9,13,13,0,0,0-2.58,1.63,12.85,12.85,0,0,0-3.44,4.42,9.12,9.12,0,0,0-.58,1.54,16.36,16.36,0,0,0-.43,2c0,.27-.07.54-.09.82a10.21,10.21,0,0,0,0,1.24,7.18,7.18,0,0,0,.27,1.92,3.42,3.42,0,0,0,.85,1.53h0l6.39,5.17-.07.69a2.48,2.48,0,0,1-.42.36,3.85,3.85,0,0,1-1.14.5,3.93,3.93,0,0,1-.71.09,3.72,3.72,0,0,1-.94-.06l-3.14-2.54L126.94,78l-.84,5.88,6,4.89.16.07a5.48,5.48,0,0,0,1.25.35,10.67,10.67,0,0,0,1.55.13,14.49,14.49,0,0,0,1.71-.1,15.93,15.93,0,0,0,1.7-.32,13.55,13.55,0,0,0,1.75-.55,11.18,11.18,0,0,0,1.74-.85,10.71,10.71,0,0,0,1.65-1.23,8.12,8.12,0,0,0,1.4-1.68,10.16,10.16,0,0,0,1.14-2.6,11,11,0,0,0,.37-2,8.88,8.88,0,0,0,0-.89,6.32,6.32,0,0,0-.53-2.71A3.79,3.79,0,0,0,144.7,74.92Zm-4.89,2.23a9.24,9.24,0,0,1-1.08,2.48,7.59,7.59,0,0,1-1.3,1.56,10.58,10.58,0,0,1-1.56,1.17,11.65,11.65,0,0,1-1.67.81,14.5,14.5,0,0,1-1.7.54,15.16,15.16,0,0,1-1.66.3,12,12,0,0,1-1.67.1,8.77,8.77,0,0,1-1.5-.12,5.4,5.4,0,0,1-1.2-.34l.82-5.68a3.28,3.28,0,0,0,1.62,1.42,5,5,0,0,0,2.19.42,4,4,0,0,0,2.05-.67,3,3,0,0,0,1.25-1.83,3.32,3.32,0,0,0,0-1.93,2.2,2.2,0,0,0-1.17-1.28,5.94,5.94,0,0,0-1.82-.47,16.54,16.54,0,0,1-1.93-.31,5.41,5.41,0,0,1-1.69-.71,2.83,2.83,0,0,1-1.12-1.7,7,7,0,0,1-.26-1.85,12.08,12.08,0,0,1,.13-2,15,15,0,0,1,.41-1.89,8.59,8.59,0,0,1,.56-1.48,12.66,12.66,0,0,1,1.37-2.25,12,12,0,0,1,4.39-3.54,12.83,12.83,0,0,1,3-1,5.18,5.18,0,0,1,1-.13,9.91,9.91,0,0,1,1.09,0,6.05,6.05,0,0,1,1.05.17,3.34,3.34,0,0,1,.9.38L138.92,64a2.68,2.68,0,0,0-1.44-1.58,3.39,3.39,0,0,0-1.73-.1,4.72,4.72,0,0,0-2.47,1.45,5.07,5.07,0,0,0-1.18,2.58,2.33,2.33,0,0,0,.36,2,3.16,3.16,0,0,0,1.75.83c.84.13,1.62.28,2.35.43a5.71,5.71,0,0,1,1.87.73,3.67,3.67,0,0,1,1.26,1.45,6.18,6.18,0,0,1,.5,2.6A9,9,0,0,1,139.81,77.15Z"/><path class="cls-9" d="M142.08,60.7l.78-4.86,14.95-3.66.06,4.65L153,58l-1.69,20.51L145.52,80l1.69-20.51Z"/><path class="cls-59" d="M164.18,56.71h0v-.07l-.06,0-6-4.9-15.59,3.82-.89,5.55L146.41,65l-1.27,15.41,6,4.88,6.47-1.58,1.69-20.51,4.93-1.2ZM153,58l-1.69,20.51L145.52,80l1.69-20.51-5.13,1.26.78-4.86,14.95-3.66.06,4.65Z"/><path class="cls-60" d="M77.53,67.76V67.7s0-.07,0-.11a4.27,4.27,0,0,1,8.5,0s0,.07,0,.11v.06a1.93,1.93,0,0,1,0,.24v.15a6.75,6.75,0,0,1-.84,3.09,6.44,6.44,0,0,1-.84-.82c-1.07,7.7-2.57,9.63-2.59,9.66s-1.52-2-2.59-9.66a6.44,6.44,0,0,1-.84.82,6.75,6.75,0,0,1-.84-3.09V68A1.93,1.93,0,0,1,77.53,67.76Z"/><path class="cls-9" d="M77.91,67.39a3.62,3.62,0,0,1,.25-1,3.87,3.87,0,0,1,1.19-1.6,2.42,2.42,0,0,1,.42-.29l.44-.24a3.08,3.08,0,0,1,.94-.32,2.85,2.85,0,0,0-.93.36l-.42.25a2,2,0,0,0-.4.29,3.81,3.81,0,0,0-1.13,1.59,4,4,0,0,0-.21,1,4.1,4.1,0,0,0,0,.49c0,.17,0,.33,0,.5a6.31,6.31,0,0,0,.46,1.74l.15-.17.13-.13.12-.15.5-.58.16-.19,0,.25c.06.42.11.85.18,1.27,0,.21.07.42.1.63l.12.63c.15.84.32,1.68.5,2.52.09.41.18.83.28,1.25l.15.62.15.62c.11.41.22.83.35,1.23.06.21.13.4.2.6s.08.19.12.29v0l.12-.29c.07-.2.14-.39.2-.6.13-.4.24-.82.34-1.23.06-.21.11-.41.16-.62l.15-.62c.1-.42.19-.84.28-1.25.18-.84.35-1.68.5-2.52l.11-.63c0-.21.08-.42.11-.63L84,69.16l0-.25.16.19.5.58.12.14,0,0,0,0,.07.07.15.17a5.75,5.75,0,0,0,.48-2.19h0a3.75,3.75,0,0,0-.18-1.33,3.86,3.86,0,0,0-.64-1.2,3.69,3.69,0,0,0-.48-.49L84,64.69a3,3,0,0,0-.3-.18,5,5,0,0,0-.59-.34,3,3,0,0,0-.66-.22,3.19,3.19,0,0,1,.67.19c.21.09.41.21.61.32s.2.11.3.18a1.86,1.86,0,0,1,.28.21,3.86,3.86,0,0,1,.5.49,4,4,0,0,1,.7,1.21,4.83,4.83,0,0,1,.17.68,4,4,0,0,1,0,.7h0a5,5,0,0,1-.13,1.23,6,6,0,0,1-.39,1.18l-.06.14-.1-.11-.27-.27L84.68,70l0,0,0,0-.13-.14-.33-.38c0,.34-.08.68-.13,1s-.13.85-.21,1.28c-.15.84-.31,1.68-.49,2.52-.08.42-.18.84-.27,1.26l-.15.63-.15.62c-.11.42-.22.84-.34,1.25-.06.21-.13.41-.21.62a2.65,2.65,0,0,1-.29.62l-.12.19-.12-.19a2.65,2.65,0,0,1-.29-.62c-.08-.21-.15-.41-.21-.62-.12-.41-.23-.83-.34-1.25l-.15-.62-.15-.63q-.15-.63-.27-1.26c-.18-.84-.34-1.68-.49-2.52-.08-.42-.15-.85-.21-1.27s-.09-.69-.13-1l-.34.38a3.33,3.33,0,0,1-.25.28l-.27.28-.1.11-.06-.14a6.32,6.32,0,0,1-.51-1.95c0-.17,0-.34,0-.5A4.36,4.36,0,0,1,77.91,67.39Z"/><path class="cls-61" d="M32.09,122.07l.19-2.53-.78.17-.19,2.53-1.21.27.46-6.11,1.21-.27-.18,2.42.78-.17.18-2.43,1.21-.27-.45,6.12Z"/><path class="cls-62" d="M36.1,120l-.91.2-.28,1.24-1.28.29,1.63-6.38,1.49-.33.73,5.85-1.28.28Zm-.46-2-.2,1,.57-.12,0-1,0-1.21h-.05Z"/><path class="cls-63" d="M40.18,114.26l1.32-.3-1.65,6.38-1.53.34-.72-5.85,1.33-.3.19,2.36.09,1.69.06,0,.35-1.76Z"/><path class="cls-64" d="M43,118.47l-.91.2-.28,1.24-1.29.28,1.64-6.37,1.48-.33.73,5.85-1.27.28Zm-.46-2-.2,1,.56-.13,0-.95,0-1.21,0,0Z"/><path class="cls-65" d="M46.74,112.75a1.35,1.35,0,0,1,1.17.12,1,1,0,0,1,.31.93v.08a.29.29,0,0,1,0,.09l-1.18.46a.79.79,0,0,0-.09-.43.24.24,0,0,0-.28-.11.53.53,0,0,0-.2.09.45.45,0,0,0-.13.15,1.19,1.19,0,0,0-.08.16,1,1,0,0,0,0,.15L46,117.56a.46.46,0,0,0,.05.23c0,.06.13.08.28,0a.51.51,0,0,0,.3-.23,1,1,0,0,0,.16-.5L48,117a2.27,2.27,0,0,1-.5,1.27,2.08,2.08,0,0,1-1.2.7,1.39,1.39,0,0,1-1.19-.12,1.2,1.2,0,0,1-.3-1.07l.23-3.07a2.2,2.2,0,0,1,.49-1.25A2.12,2.12,0,0,1,46.74,112.75Z"/><path class="cls-66" d="M48.35,118.45l.46-6.11,1.21-.27-.46,6.11Z"/><path class="cls-67" d="M50.3,118l.45-6.11,1.22-.27-.37,5,1.63-.37-.08,1.15Z"/><path class="cls-68" d="M53.5,117.31l.45-6.12,1.22-.27L54.71,117Z"/><path class="cls-69" d="M57,112.37l1-2.08,1.29-.29-1.48,2.82L59,116.09l-1.26.28-.69-2.16-.26.6-.13,1.8-1.22.27.46-6.12,1.22-.27L57,112.38Z"/><path class="cls-70" d="M59.77,117.24l-.68.15.4-1.38-.26.06.1-1.35,1.21-.27-.09,1.32Z"/><path class="cls-71" d="M65.54,108.63l-.35,4.61a2,2,0,0,1-.49,1.26,2.27,2.27,0,0,1-1.21.64C62.43,115.37,62,115,62,114l.35-4.62,1.21-.27-.34,4.64c0,.14,0,.23.08.27a.35.35,0,0,0,.25,0,.47.47,0,0,0,.26-.14.45.45,0,0,0,.13-.32l.35-4.64Z"/><path class="cls-72" d="M65.49,114.64l.09-1.09,1.79-4.21-1.45.32.09-1.14,2.76-.62L68.69,109l-1.81,4.25,1.51-.33L68.31,114Z"/><path class="cls-73" d="M70.85,112.28l-.91.2-.27,1.24-1.29.28L70,107.62l1.48-.33.73,5.86-1.28.28Zm-.46-2-.19,1,.56-.13,0-1,0-1.21-.06,0Z"/><path class="cls-74" d="M73.94,109l.29-1.08.36-1.26,1.29-.29-1.48,3.9-.19,2.48L73,113l.18-2.48-.94-3.36,1.29-.29.22,1.16.14,1Z"/><path class="cls-75" d="M79.71,105.47l1.32-.29-1.65,6.37-1.53.35L77.13,106l1.33-.29.19,2.36.09,1.68h.06l.35-1.77Z"/><path class="cls-76" d="M80.88,111.22l.45-6.11,2.85-.63-.08,1.14-1.64.36-.09,1.3L83.8,107l-.09,1.15-1.43.31-.1,1.39,1.63-.36-.08,1.14Z"/><path class="cls-77" d="M87.51,104.86l-.37,5-1.22.27.38-5-1,.21.09-1.14,3.12-.7-.08,1.15Z"/><path class="cls-78" d="M88.41,109.55l.46-6.12,2.85-.63-.09,1.14-1.63.37-.1,1.3,1.43-.32-.09,1.14-1.43.32-.1,1.39,1.63-.37-.08,1.15Z"/><path class="cls-79" d="M93.33,104.3l1-2.08,1.29-.28-1.48,2.81L95.29,108,94,108.3l-.69-2.15-.26.6L93,108.54l-1.22.27.46-6.11,1.21-.27-.14,1.89Z"/><path class="cls-80" d="M98,104.25l.22-2.89,1.19-.27-.46,6.12-1,.23-.6-1.62L97,104.75h0l-.22,2.94-1.22.27.46-6.11,1.06-.24.6,1.62.34,1Z"/><path class="cls-81" d="M102.85,104.87a2,2,0,0,1-.49,1.26,2.3,2.3,0,0,1-1.22.64c-1,.23-1.54-.16-1.46-1.19l.23-3.14a2,2,0,0,1,.51-1.26,2.32,2.32,0,0,1,1.19-.63,1.39,1.39,0,0,1,1.17.11,1.19,1.19,0,0,1,.3,1.07Zm-1-2.91c0-.13,0-.22-.09-.26a.25.25,0,0,0-.24,0,.54.54,0,0,0-.27.14.47.47,0,0,0-.13.32l-.24,3.23c0,.14,0,.23.08.27a.37.37,0,0,0,.26,0,.53.53,0,0,0,.26-.15.46.46,0,0,0,.12-.31Z"/><path class="cls-82" d="M103.4,106.22l.46-6.12,1.21-.27-.37,5,1.63-.37-.08,1.14Z"/><path class="cls-83" d="M109.81,103.32a2,2,0,0,1-.49,1.26,2.24,2.24,0,0,1-1.22.64c-1,.24-1.54-.16-1.46-1.19l.23-3.14a2,2,0,0,1,.51-1.25,2.22,2.22,0,0,1,1.19-.64,1.39,1.39,0,0,1,1.17.11,1.2,1.2,0,0,1,.3,1.08Zm-1-2.9c0-.14,0-.23-.08-.27a.31.31,0,0,0-.24,0,.54.54,0,0,0-.27.14.47.47,0,0,0-.13.32l-.24,3.23c0,.14,0,.23.08.27a.37.37,0,0,0,.26,0,.51.51,0,0,0,.26-.14.49.49,0,0,0,.12-.32Z"/><path class="cls-84" d="M113.32,98l-.35,4.63a2,2,0,0,1-.5,1.22,2.16,2.16,0,0,1-1.2.67,1.46,1.46,0,0,1-.78,0,1.11,1.11,0,0,1-.58-.46l1-.88a.64.64,0,0,0,.24.2.4.4,0,0,0,.23,0,.46.46,0,0,0,.31-.21.77.77,0,0,0,.11-.28l.34-4.62Z"/><path class="cls-85" d="M113.58,104l.46-6.11,1.22-.27-.46,6.11Zm.56-6.4.09-1.14,1-.24-.08,1.14Z"/><path class="cls-86" d="M118.13,98.05l-.1,1.3,1.43-.31-.09,1.14-1.42.32-.19,2.53-1.22.27.46-6.12,2.85-.63-.09,1.14Z"/><path class="cls-87" d="M119.86,102.56l.46-6.12,2.85-.63L123.09,97l-1.64.37-.1,1.3,1.43-.32-.08,1.14-1.43.32-.11,1.39,1.64-.37-.09,1.14Z"/><path class="cls-88" d="M126.41,99.33a3.74,3.74,0,0,1-.13.78,2.1,2.1,0,0,1-.3.64,1.92,1.92,0,0,1-.53.49,2.61,2.61,0,0,1-.79.3,1.7,1.7,0,0,1-.73,0,.78.78,0,0,1-.47-.23.91.91,0,0,1-.25-.44,1.87,1.87,0,0,1,0-.59l1.24-.5a1.19,1.19,0,0,0,.06.48c0,.1.15.13.3.1a.51.51,0,0,0,.22-.11.52.52,0,0,0,.12-.19.84.84,0,0,0,.07-.24,2,2,0,0,0,0-.26,1.4,1.4,0,0,0,0-.3A.35.35,0,0,0,125,99a1.25,1.25,0,0,0-.27-.08,2.49,2.49,0,0,1-.71-.22,1.16,1.16,0,0,1-.39-.32.94.94,0,0,1-.16-.43,4.85,4.85,0,0,1,0-.54,3.4,3.4,0,0,1,.14-.72,2.08,2.08,0,0,1,.32-.61,2,2,0,0,1,.53-.47,2.62,2.62,0,0,1,.76-.3,1.61,1.61,0,0,1,.75,0,.83.83,0,0,1,.45.26.86.86,0,0,1,.21.44,1.76,1.76,0,0,1,0,.51l-1.22.52a1,1,0,0,0,0-.24.38.38,0,0,0,0-.19.19.19,0,0,0-.11-.12.26.26,0,0,0-.2,0,.42.42,0,0,0-.2.1.66.66,0,0,0-.12.17,1.18,1.18,0,0,0-.07.2,1.5,1.5,0,0,0,0,.2.81.81,0,0,0,0,.22.24.24,0,0,0,.07.16.53.53,0,0,0,.2.13l.37.09a2.39,2.39,0,0,1,.65.2,1,1,0,0,1,.35.32,1.08,1.08,0,0,1,.13.46A4.38,4.38,0,0,1,126.41,99.33Z"/><path class="cls-89" d="M128.93,95.65l-.37,5-1.22.27.37-5-.95.22.08-1.15L130,94.3l-.09,1.14Z"/><path class="cls-90" d="M129.84,100.34l.46-6.11,1.22-.27-.46,6.11Zm.56-6.4.09-1.15,1-.23-.08,1.14Z"/><path class="cls-91" d="M134.42,93.31l1.32-.29-1.64,6.37-1.54.35-.72-5.86,1.33-.29.19,2.36.1,1.68h0l.35-1.77Z"/><path class="cls-92" d="M137.24,97.52l-.91.2L136.05,99l-1.28.29,1.63-6.38,1.49-.33.73,5.85-1.28.28Zm-.46-2-.2,1,.57-.12-.05-1,0-1.21H137Z"/><path class="cls-93" d="M139,98.31l.45-6.11,1.22-.27-.37,5,1.63-.36-.08,1.14Z"/><path class="cls-94" d="M142.15,97.6l.46-6.11,1.22-.27-.46,6.11Zm.56-6.4.09-1.14,1-.24L143.77,91Z"/></g></g></svg>