<?xml version="1.0" encoding="utf-8"?>
<!-- Generator: Adobe Illustrator 22.0.1, SVG Export Plug-In . SVG Version: 6.00 Build 0)  -->
<svg version="1.1" id="Layer_1" xmlns="http://www.w3.org/2000/svg" xmlns:xlink="http://www.w3.org/1999/xlink" x="0px" y="0px"
	 viewBox="0 0 447 61" style="enable-background:new 0 0 447 61;" xml:space="preserve">
<style type="text/css">
	.st0{fill:#FFFFFF;}
	.st1{fill:#CF0A2C;}
	.st2{fill:#55565A;}
</style>
<g>
	<path class="st0" d="M31.2,6h-4.5C13.1,6,2,17,2,30.5S13.1,55,26.7,55h4.5h4.5c13.6,0,24.7-11,24.7-24.5S49.3,6,35.7,6H31.2"/>
	<g>
		<path class="st1" d="M35.9,52.9c-1,0-2-0.1-3-0.2C42.6,50,49.8,41,49.8,30.4S42.7,10.9,32.9,8.1c1-0.1,2-0.2,3-0.2
			c12.4,0,22.4,10.1,22.4,22.5S48.3,52.9,35.9,52.9 M12.7,30.5c0-11.2,8-20.5,18.5-22.7v45.3C20.7,51,12.7,41.6,12.7,30.5 M35.9,7.3
			c-1.5,0-3.2,0.2-4.7,0.5l0,0c-1.5-0.3-3-0.5-4.6-0.5C13.8,7.3,3.5,17.7,3.5,30.5s10.4,23.1,23.1,23.1c1.6,0,3.1-0.2,4.6-0.5l0,0
			c1.5,0.3,3.1,0.5,4.7,0.5C48.6,53.6,59,43.2,59,30.5C59,17.7,48.6,7.3,35.9,7.3"/>
	</g>
</g>
<g>
	<path class="st2" d="M75.9,25.4c-1.5,0-2.8,1.3-2.8,2.8v8.6c0,1.5,1.3,2.8,2.8,2.8H82c1.5,0,2.8-1.3,2.8-2.8v-8.6
		c0-1.5-1.3-2.8-2.8-2.8C82,25.4,75.9,25.4,75.9,25.4z M81.2,27.8c0.5,0,0.9,0.4,0.9,0.9v7.6c0,0.5-0.4,0.9-0.9,0.9h-4.6
		c-0.5,0-0.9-0.4-0.9-0.9v-7.6c0-0.5,0.4-0.9,0.9-0.9H81.2z M89.4,39.3H92v-5h1.8l3.5,5h3l-3.6-5.1h0.2c1.2-0.2,2.1-1.3,2.1-2.6
		v-3.2c0-1.5-1.2-2.8-2.8-2.8h-6.9v13.7H89.4z M92,32.2v-4.3h3.2c0.7,0,1.2,0.6,1.2,1.2v2c0,0.6-0.5,1.1-1.2,1.1
		C95.2,32.2,92,32.2,92,32.2z M102.1,27.9h4.5v11.4h2.6V27.9h4.5v-2.3H102L102.1,27.9L102.1,27.9z M114.4,39.3h2.7l1.3-3.5h5
		l1.3,3.5h2.7l-5.3-13.7h-2.5L114.4,39.3z M119.2,33.6l1.8-4.7l1.8,4.7H119.2z M145.2,39.3c1.5,0,2.8-1.3,2.8-2.8v-8.1
		c0-1.5-1.2-2.8-2.8-2.8h-8.4v13.7H145.2z M139.4,36.8V28h5c0.5,0,0.9,0.4,0.9,0.9V36c0,0.5-0.4,0.9-0.9,0.9L139.4,36.8L139.4,36.8z
		 M155.2,25.4c-1.5,0-2.8,1.3-2.8,2.8v8.6c0,1.5,1.3,2.8,2.8,2.8h6.1c1.5,0,2.8-1.3,2.8-2.8v-8.6c0-1.5-1.3-2.8-2.8-2.8
		C161.3,25.4,155.2,25.4,155.2,25.4z M160.6,27.8c0.5,0,0.9,0.4,0.9,0.9v7.6c0,0.5-0.4,0.9-0.9,0.9H156c-0.5,0-0.9-0.4-0.9-0.9v-7.6
		c0-0.5,0.4-0.9,0.9-0.9H160.6z M168.5,36.7c0,1.5,1.3,2.8,2.8,2.8h5.2c1.5,0,2.8-1.3,2.8-2.8v-4.3h-5.1v2h2.5v1.7
		c0,0.5-0.4,0.9-0.9,0.9H172c-0.5,0-0.9-0.4-0.9-0.9v-7.6c0-0.5,0.4-0.9,0.9-0.9h3.8c0.5,0,0.9,0.4,0.9,0.9v1.3h2.5V28
		c0-1.5-1.2-2.8-2.8-2.8h-5.2c-1.5,0-2.8,1.3-2.8,2.8v8.7H168.5z M183.8,36.7c0,1.5,1.3,2.8,2.8,2.8h5.3c1.6,0,2.8-1.3,2.8-2.8V25.6
		H192v10.6c0,0.5-0.4,0.9-0.9,0.9h-3.9c-0.5,0-0.9-0.4-0.9-0.9V25.6h-2.6L183.8,36.7L183.8,36.7z M203.9,27.9h4.5v11.4h2.6V27.9h4.5
		v-2.3h-11.7L203.9,27.9L203.9,27.9z M219.1,39.3h9.5v-2.4h-6.9v-3.4h5.1v-2.1h-5.1v-3.5h6.7v-2.3h-9.3V39.3z M232.8,39.3h2.6v-5.8
		l5.7,5.8h3.3l-6.7-6.9l6.6-6.8h-3.1l-5.8,5.9v-5.9h-2.6V39.3z M247.9,39.3h2.6v-9.8l6,6.1v3.7h2.6V25.6h-2.6v6.5l-6.5-6.5h-2.1
		V39.3z M264.2,39.3h2.7V25.6h-2.7V39.3z M271.9,39.3h2.6v-5.8l5.7,5.8h3.3l-6.7-6.9l6.6-6.8h-3.1l-5.8,5.9v-5.9h-2.6V39.3z
		 M292.8,36.7c0,1.5,1.3,2.8,2.8,2.8h5.3c1.6,0,2.8-1.3,2.8-2.8V25.6H301v10.6c0,0.5-0.4,0.9-0.9,0.9h-3.9c-0.5,0-0.9-0.4-0.9-0.9
		V25.6h-2.6L292.8,36.7L292.8,36.7z M308.5,39.3h2.6v-9.8l6,6.1v3.7h2.6V25.6h-2.6v6.5l-6.5-6.5h-2.1V39.3z M324.8,39.3h2.7V25.6
		h-2.7V39.3z M331.1,25.6l5.2,13.7h2.2l5.2-13.7h-2.8l-3.5,9.6l-3.5-9.6H331.1z M347.2,39.3h9.5v-2.4h-6.9v-3.4h5.1v-2.1h-5.1v-3.5
		h6.7v-2.3h-9.3L347.2,39.3L347.2,39.3z M360.9,39.3h2.6v-5h1.8l3.5,5h3l-3.6-5.1h0.2c1.2-0.2,2.1-1.3,2.1-2.6v-3.2
		c0-1.5-1.2-2.8-2.8-2.8h-6.9L360.9,39.3L360.9,39.3z M363.5,32.2v-4.3h3.2c0.7,0,1.2,0.6,1.2,1.2v2c0,0.6-0.5,1.1-1.2,1.1
		C366.7,32.2,363.5,32.2,363.5,32.2z M375.2,36.7c0,1.5,1.3,2.8,2.8,2.8h4.9c1.6,0,2.8-1.3,2.8-2.8v-2.2c0-1-0.7-2-1.7-2.3l-5.7-1.5
		c-0.3-0.1-0.5-0.4-0.5-0.7v-1.3c0-0.5,0.4-0.9,0.9-0.9h3.6c0.5,0,0.9,0.4,0.9,0.9v1.1h2.5v-1.7c0-1.5-1.2-2.8-2.8-2.8H378
		c-1.5,0-2.8,1.3-2.8,2.8v2.2c0,1,0.6,2,1.6,2.2l5.7,1.5c0.3,0.1,0.5,0.4,0.5,0.7V36c0,0.5-0.4,0.9-0.9,0.9h-3.6
		c-0.5,0-0.9-0.4-0.9-0.9v-1.1h-2.5v1.8H375.2z M390.3,39.3h2.7V25.6h-2.7V39.3z M396.6,27.9h4.5v11.4h2.6V27.9h4.5v-2.3h-11.7v2.3
		H396.6z M411.8,39.3h9.5v-2.4h-6.9v-3.4h5.1v-2.1h-5.1v-3.5h6.7v-2.3h-9.3L411.8,39.3L411.8,39.3z M425.1,36.7
		c0,1.5,1.3,2.8,2.8,2.8h4.9c1.6,0,2.8-1.3,2.8-2.8v-2.2c0-1-0.7-2-1.7-2.3l-5.7-1.5c-0.3-0.1-0.5-0.4-0.5-0.7v-1.3
		c0-0.5,0.4-0.9,0.9-0.9h3.6c0.5,0,0.9,0.4,0.9,0.9v1.1h2.5v-1.7c0-1.5-1.2-2.8-2.8-2.8h-4.9c-1.5,0-2.8,1.3-2.8,2.8v2.2
		c0,1,0.6,2,1.6,2.2l5.7,1.5c0.3,0.1,0.5,0.4,0.5,0.7V36c0,0.5-0.4,0.9-0.9,0.9h-3.6c-0.5,0-0.9-0.4-0.9-0.9v-1.1H425v1.8H425.1z
		 M440.3,39.3h2.7V25.6h-2.7V39.3z"/>
	<polygon class="st2" points="176.6,23.7 176.6,21.5 173.9,21.5 171.2,21.5 171.2,23.7 173.9,23.7 	"/>
	<polygon class="st2" points="266.9,23.7 266.9,21.4 265.5,21.4 264.2,21.4 264.2,23.7 265.5,23.7 	"/>
	<polygon class="st2" points="327.5,23.7 327.5,21.4 326.1,21.4 324.8,21.4 324.8,23.7 326.1,23.7 	"/>
	<polygon class="st2" points="296.9,23.7 296.9,21.4 295.6,21.4 294.2,21.4 294.2,23.7 295.6,23.7 	"/>
	<polygon class="st2" points="302,23.7 302,21.4 300.7,21.4 299.3,21.4 299.3,23.7 300.7,23.7 	"/>
	<polygon class="st2" points="393,23.7 393,21.4 391.7,21.4 390.3,21.4 390.3,23.7 391.7,23.7 	"/>
	<polygon class="st2" points="442.9,23.7 442.9,21.4 441.6,21.4 440.3,21.4 440.3,23.7 441.6,23.7 	"/>
</g>
</svg>
